<?xml version="1.0" encoding="UTF-8" standalone="no"?>
<!-- Created with Inkscape (http://www.inkscape.org/) -->

<svg
   width="500mm"
   height="500mm"
   viewBox="0 0 500 500"
   version="1.1"
   id="svg1"
   sodipodi:docname="Fortuna.svg"
   inkscape:version="1.3.2 (091e20e, 2023-11-25)"
   xmlns:inkscape="http://www.inkscape.org/namespaces/inkscape"
   xmlns:sodipodi="http://sodipodi.sourceforge.net/DTD/sodipodi-0.dtd"
   xmlns="http://www.w3.org/2000/svg"
   xmlns:svg="http://www.w3.org/2000/svg">
  <sodipodi:namedview
     id="namedview1"
     pagecolor="#ffffff"
     bordercolor="#000000"
     borderopacity="0.25"
     inkscape:showpageshadow="false"
     inkscape:pageopacity="0.0"
     inkscape:pagecheckerboard="false"
     inkscape:deskcolor="#d1d1d1"
     inkscape:document-units="mm"
     showguides="true"
     inkscape:zoom="0.19078553"
     inkscape:cx="704.98011"
     inkscape:cy="967.0545"
     inkscape:window-width="1512"
     inkscape:window-height="858"
     inkscape:window-x="0"
     inkscape:window-y="38"
     inkscape:window-maximized="0"
     inkscape:current-layer="svg1"
     showborder="false"
     borderlayer="false"
     showgrid="false" />
  <defs
     id="defs1">
    <marker
       style="overflow:visible"
       id="marker20"
       refX="0"
       refY="0"
       orient="auto"
       inkscape:stockid="Dot"
       markerWidth="1"
       markerHeight="1"
       viewBox="0 0 1 1"
       inkscape:isstock="true"
       inkscape:collect="always"
       preserveAspectRatio="xMidYMid">
      <path
         transform="scale(0.5)"
         style="fill:context-stroke;fill-rule:evenodd;stroke:none"
         d="M 5,0 C 5,2.76 2.76,5 0,5 -2.76,5 -5,2.76 -5,0 c 0,-2.76 2.3,-5 5,-5 2.76,0 5,2.24 5,5 z"
         sodipodi:nodetypes="sssss"
         id="path20" />
    </marker>
    <marker
       style="overflow:visible"
       id="Dot"
       refX="0"
       refY="0"
       orient="auto"
       inkscape:stockid="Dot"
       markerWidth="1"
       markerHeight="1"
       viewBox="0 0 1 1"
       inkscape:isstock="true"
       inkscape:collect="always"
       preserveAspectRatio="xMidYMid">
      <path
         transform="scale(0.5)"
         style="fill:context-stroke;fill-rule:evenodd;stroke:none"
         d="M 5,0 C 5,2.76 2.76,5 0,5 -2.76,5 -5,2.76 -5,0 c 0,-2.76 2.3,-5 5,-5 2.76,0 5,2.24 5,5 z"
         sodipodi:nodetypes="sssss"
         id="path19" />
    </marker>
    <inkscape:path-effect
       effect="fill_between_many"
       method="originald"
       linkedpaths="#path6,0,1|"
       id="path-effect8" />
    <inkscape:path-effect
       effect="fill_between_many"
       method="originald"
       linkedpaths="#path8,0,1|"
       id="path-effect9" />
    <inkscape:path-effect
       effect="fill_between_many"
       method="originald"
       linkedpaths="#path1-4-6,0,1|"
       id="path-effect10" />
    <inkscape:path-effect
       effect="fill_between_many"
       method="originald"
       linkedpaths="#path1-4-6-4,0,1|"
       id="path-effect11" />
    <inkscape:path-effect
       effect="fill_between_many"
       method="originald"
       linkedpaths="#path1-4-6-4-0,0,1|"
       id="path-effect12" />
    <inkscape:path-effect
       effect="fill_between_many"
       method="originald"
       linkedpaths="#path1-4-6-4-0-1,0,1|"
       id="path-effect13" />
  </defs>
  <circle
     style="display:inline;fill:#ffffff;fill-opacity:1;stroke:#000000;stroke-width:0.999999;stroke-linecap:round;stroke-linejoin:round;stroke-miterlimit:10;stroke-dasharray:none;stroke-opacity:1"
     id="path21"
     cx="250"
     cy="250"
     inkscape:label="Background-2"
     r="249.5"
     sodipodi:insensitive="true" />
  <path
     id="path2"
     style="display:inline;fill:#ff0000;fill-opacity:0.25;stroke:#000000;stroke-width:0.999999;stroke-linecap:round;stroke-linejoin:round;stroke-miterlimit:10;stroke-opacity:1"
     inkscape:label="Background-1"
     d="M 250.00025,0.5 A 249.50001,249.50001 0 0 0 0.5,250.00025 249.50001,249.50001 0 0 0 250.00025,499.5 249.50001,249.50001 0 0 0 499.5,250.00025 249.50001,249.50001 0 0 0 250.00025,0.5 Z m 0,0.49922747 A 249.00101,249.00101 0 0 1 301.56819,6.4551438 C 339.40607,144.15506 466.14544,189.95919 493.52629,198.35033 a 249.00101,249.00101 0 0 1 5.47448,51.64992 A 249.00101,249.00101 0 0 1 250.00025,499.00077 249.00101,249.00101 0 0 1 0.99922747,250.00025 249.00101,249.00101 0 0 1 250.00025,0.99922747 Z" />
  <g
     inkscape:label="StandardNormalSpace"
     inkscape:groupmode="layer"
     id="layer1"
     style="display:inline"
     sodipodi:insensitive="true">
    <path
       d="M 301.67151,5.9670811 A 249.5,249.5 0 0 0 250.00024,0.5002314 249.5,249.5 0 0 0 0.500225,250.00024 249.5,249.5 0 0 0 250.00024,499.49974 249.5,249.5 0 0 0 499.49974,250.00024 249.5,249.5 0 0 0 494.01429,198.24681 C 466.57854,189.83885 339.58526,143.94308 301.67151,5.9670811 Z"
       style="display:inline;fill:#008080;fill-opacity:0.1;stroke:#000000;stroke-width:0.999996"
       id="path8-4"
       inkscape:label="Circle-9" />
    <path
       d="M 425.3668,166.5366 C 393.40244,146.95416 357.34454,117.26686 330.58654,73.260645 A 194.282,194.282 0 0 0 250.00024,55.718046 194.282,194.282 0 0 0 55.718046,250.00024 194.282,194.282 0 0 0 250.00024,444.28193 194.282,194.282 0 0 0 444.28193,250.00024 194.282,194.282 0 0 0 425.3668,166.5366 Z"
       style="display:inline;opacity:1;fill:#008080;fill-opacity:0.1;stroke:#000000;stroke-width:0.999996"
       id="path10"
       inkscape:label="Circle-8" />
    <path
       id="path3-7-5"
       style="display:inline;opacity:1;fill:#008080;fill-opacity:0.1;stroke:#000000;stroke-width:0.999995"
       d="M 407.0265,250 A 157.0265,157.0265 0 0 1 250,407.0265 157.0265,157.0265 0 0 1 92.973495,250 157.0265,157.0265 0 0 1 250,92.973495 157.0265,157.0265 0 0 1 407.0265,250 Z"
       inkscape:label="Circle-7" />
    <path
       id="path3-7-5-2"
       style="display:inline;opacity:1;fill:#008080;fill-opacity:0.1;stroke:#000000;stroke-width:0.999994"
       d="M 377.4175,250 A 127.4175,127.4175 0 0 1 250,377.4175 127.4175,127.4175 0 0 1 122.5825,250 127.4175,127.4175 0 0 1 250,122.5825 127.4175,127.4175 0 0 1 377.4175,250 Z"
       inkscape:label="Circle-6" />
    <path
       id="path3-7-5-2-4"
       style="display:inline;opacity:1;fill:#008080;fill-opacity:0.1;stroke:#000000;stroke-width:0.999994"
       d="M 352.01501,250 A 102.01501,102.01501 0 0 1 250,352.01501 102.01501,102.01501 0 0 1 147.98499,250 102.01501,102.01501 0 0 1 250,147.98499 102.01501,102.01501 0 0 1 352.01501,250 Z"
       inkscape:label="Circle-5" />
    <path
       id="path3-7-5-2-4-4"
       style="display:inline;opacity:1;fill:#008080;fill-opacity:0.1;stroke:#000000;stroke-width:0.999993"
       d="M 329.203,250 A 79.203003,79.203003 0 0 1 250,329.203 79.203003,79.203003 0 0 1 170.797,250 79.203003,79.203003 0 0 1 250,170.797 79.203003,79.203003 0 0 1 329.203,250 Z"
       inkscape:label="Circle-4" />
    <path
       id="path3-7-5-2-4-4-5"
       style="display:inline;opacity:1;fill:#008080;fill-opacity:0.1;stroke:#000000;stroke-width:0.999991"
       d="M 308.0645,250 A 58.064503,58.064503 0 0 1 250,308.0645 58.064503,58.064503 0 0 1 191.9355,250 58.064503,58.064503 0 0 1 250,191.9355 58.064503,58.064503 0 0 1 308.0645,250 Z"
       inkscape:label="Circle-3" />
    <path
       id="path3-7-5-2-4-4-5-2"
       style="display:inline;opacity:1;fill:#008080;fill-opacity:0.1;stroke:#000000;stroke-width:0.999992"
       d="M 288.006,250 A 38.006004,38.006004 0 0 1 250,288.006 38.006004,38.006004 0 0 1 211.994,250 38.006004,38.006004 0 0 1 250,211.994 38.006004,38.006004 0 0 1 288.006,250 Z"
       inkscape:label="Circle-2" />
    <path
       id="path3-7-5-2-4-4-5-2-0"
       style="display:inline;opacity:1;fill:#008080;fill-opacity:0.1;stroke:#000000;stroke-width:0.999994"
       d="M 268.599,250 A 18.599005,18.599005 0 0 1 250,268.599 18.599005,18.599005 0 0 1 231.401,250 18.599005,18.599005 0 0 1 250,231.401 18.599005,18.599005 0 0 1 268.599,250 Z"
       inkscape:label="Circle-1" />
  </g>
  <g
     inkscape:groupmode="layer"
     id="layer3"
     inkscape:label="Iterations"
     style="display:inline"
     sodipodi:insensitive="true">
    <path
       style="opacity:1;fill:none;fill-opacity:0.9;stroke:#000000;stroke-width:1;stroke-linecap:round;stroke-linejoin:round;stroke-miterlimit:10;stroke-dasharray:none;marker-start:url(#marker20);marker-end:url(#Dot)"
       d="M 315.02088,140.42123 373.3869,126.61307"
       id="path18"
       inkscape:label="Iteration-4" />
    <path
       style="display:inline;opacity:1;fill:none;fill-opacity:0.9;stroke:#000000;stroke-width:1;stroke-linecap:round;stroke-linejoin:round;stroke-miterlimit:10;stroke-dasharray:none;marker-start:url(#marker20);marker-end:url(#Dot)"
       d="m 272.53321,174.07296 42.48955,-33.6506"
       id="path17"
       inkscape:label="Iteration-3" />
    <path
       style="display:inline;opacity:1;fill:none;fill-opacity:0.9;stroke:#000000;stroke-width:1;stroke-linecap:round;stroke-linejoin:round;stroke-miterlimit:10;stroke-dasharray:none;marker-start:url(#marker20);marker-end:url(#Dot)"
       d="m 254.49442,212.26068 18.04004,-38.19034"
       id="path16"
       inkscape:label="Iteration-2" />
    <path
       style="display:inline;opacity:1;fill:none;fill-opacity:0.9;stroke:#000000;stroke-width:1;stroke-linecap:round;stroke-linejoin:round;stroke-miterlimit:10;stroke-dasharray:none;marker-start:url(#marker20);marker-end:url(#Dot)"
       d="m 250,250 4.49443,-37.73932"
       id="path15"
       inkscape:label="Iteration-1" />
  </g>
  <g
     inkscape:groupmode="layer"
     id="layer2"
     inkscape:label="Text"
     style="display:inline"
     sodipodi:insensitive="true">
    <text
       xml:space="preserve"
       style="font-style:normal;font-variant:normal;font-weight:bold;font-stretch:normal;font-size:70.5556px;line-height:0;font-family:'PT Mono';-inkscape-font-specification:'PT Mono, Bold';font-variant-ligatures:normal;font-variant-caps:normal;font-variant-numeric:normal;font-variant-east-asian:normal;text-align:center;text-anchor:middle;opacity:1;fill:#000000;fill-opacity:1;stroke:none;stroke-width:0;stroke-dasharray:none"
       id="text14"
       y="402.61197"
       x="244.74879"
       inkscape:label="Text"><tspan
         sodipodi:role="line"
         id="tspan14"
         style="font-style:normal;font-variant:normal;font-weight:bold;font-stretch:normal;font-size:70.5556px;font-family:'PT Mono';-inkscape-font-specification:'PT Mono, Bold';font-variant-ligatures:normal;font-variant-caps:normal;font-variant-numeric:normal;font-variant-east-asian:normal;fill:#000000;fill-opacity:1;stroke:none;stroke-width:0;stroke-dasharray:none"
         x="244.74881"
         y="402.61197"
         inkscape:label="TextSpan">FORTUNA</tspan></text>
  </g>
</svg>
