<svg xmlns="http://www.w3.org/2000/svg" xmlns:xlink="http://www.w3.org/1999/xlink" width="900pt" height="900pt" viewBox="0 0 900 900" version="1.1">
<g id="surface1393">
<path style=" stroke:none;fill-rule:nonzero;fill:rgb(100%,87.058824%,67.843137%);fill-opacity:1;" d="M 900 450 C 900 610.769531 814.230469 759.328125 675 839.710938 C 535.769531 920.097656 364.230469 920.097656 225 839.710938 C 85.769531 759.328125 0 610.769531 0 450 C 0 289.230469 85.769531 140.671875 225 60.289062 C 364.230469 -20.097656 535.769531 -20.097656 675 60.289062 C 814.230469 140.671875 900 289.230469 900 450 "></path>
<path style="fill:none;stroke-width:5;stroke-linecap:butt;stroke-linejoin:miter;stroke:rgb(0%,0%,0%);stroke-opacity:1;stroke-miterlimit:10;" d="M 750 450 C 750 615.683594 615.683594 750 450 750 C 284.316406 750 150 615.683594 150 450 C 150 284.316406 284.316406 150 450 150 C 615.683594 150 750 284.316406 750 450 "></path>
<path style="fill:none;stroke-width:5;stroke-linecap:butt;stroke-linejoin:miter;stroke:rgb(0%,0%,0%);stroke-opacity:1;stroke-miterlimit:10;" d="M 450 350 L 450 150 "></path>
<path style="fill:none;stroke-width:5;stroke-linecap:butt;stroke-linejoin:miter;stroke:rgb(0%,0%,0%);stroke-opacity:1;stroke-miterlimit:10;" d="M 536.601562 400 L 709.808594 300 "></path>
<path style="fill:none;stroke-width:5;stroke-linecap:butt;stroke-linejoin:miter;stroke:rgb(0%,0%,0%);stroke-opacity:1;stroke-miterlimit:10;" d="M 536.601562 500 L 709.808594 600 "></path>
<path style="fill:none;stroke-width:5;stroke-linecap:butt;stroke-linejoin:miter;stroke:rgb(0%,0%,0%);stroke-opacity:1;stroke-miterlimit:10;" d="M 450 550 L 450 750 "></path>
<path style="fill:none;stroke-width:5;stroke-linecap:butt;stroke-linejoin:miter;stroke:rgb(0%,0%,0%);stroke-opacity:1;stroke-miterlimit:10;" d="M 363.398438 500 L 190.191406 600 "></path>
<path style="fill:none;stroke-width:5;stroke-linecap:butt;stroke-linejoin:miter;stroke:rgb(0%,0%,0%);stroke-opacity:1;stroke-miterlimit:10;" d="M 363.398438 400 L 190.191406 300 "></path>
<path style="fill:none;stroke-width:5;stroke-linecap:butt;stroke-linejoin:miter;stroke:rgb(0%,0%,0%);stroke-opacity:1;stroke-miterlimit:10;" d="M 650 450 C 650 560.457031 560.457031 650 450 650 C 339.542969 650 250 560.457031 250 450 C 250 339.542969 339.542969 250 450 250 C 560.457031 250 650 339.542969 650 450 "></path>
<path style="fill-rule:nonzero;fill:rgb(85.490196%,64.705882%,12.54902%);fill-opacity:1;stroke-width:5;stroke-linecap:butt;stroke-linejoin:miter;stroke:rgb(0%,0%,0%);stroke-opacity:1;stroke-miterlimit:10;" d="M 550 450 C 550 505.226562 505.226562 550 450 550 C 394.773438 550 350 505.226562 350 450 C 350 394.773438 394.773438 350 450 350 C 505.226562 350 550 394.773438 550 450 "></path>
<path style=" stroke:none;fill-rule:nonzero;fill:rgb(79.6%,23.5%,20%);fill-opacity:1;" d="M 235.191406 600 C 235.191406 624.851562 215.046875 645 190.191406 645 C 165.339844 645 145.191406 624.851562 145.191406 600 C 145.191406 575.148438 165.339844 555 190.191406 555 C 215.046875 555 235.191406 575.148438 235.191406 600 "></path>
<path style=" stroke:none;fill-rule:nonzero;fill:rgb(22%,59.6%,14.9%);fill-opacity:1;" d="M 495 150 C 495 174.851562 474.851562 195 450 195 C 425.148438 195 405 174.851562 405 150 C 405 125.148438 425.148438 105 450 105 C 474.851562 105 495 125.148438 495 150 "></path>
<path style=" stroke:none;fill-rule:nonzero;fill:rgb(58.4%,34.5%,69.8%);fill-opacity:1;" d="M 754.808594 600 C 754.808594 624.851562 734.660156 645 709.808594 645 C 684.953125 645 664.808594 624.851562 664.808594 600 C 664.808594 575.148438 684.953125 555 709.808594 555 C 734.660156 555 754.808594 575.148438 754.808594 600 "></path>
<path style=" stroke:none;fill-rule:nonzero;fill:rgb(79.6%,23.5%,20%);fill-opacity:1;" d="M 664.808594 300 C 664.808594 275.148438 684.953125 255 709.808594 255 C 734.660156 255 754.808594 275.148438 754.808594 300 C 754.808594 324.851562 734.660156 345 709.808594 345 C 684.953125 345 664.808594 324.851562 664.808594 300 "></path>
<path style=" stroke:none;fill-rule:nonzero;fill:rgb(22%,59.6%,14.9%);fill-opacity:1;" d="M 405 750 C 405 725.148438 425.148438 705 450 705 C 474.851562 705 495 725.148438 495 750 C 495 774.851562 474.851562 795 450 795 C 425.148438 795 405 774.851562 405 750 "></path>
<path style=" stroke:none;fill-rule:nonzero;fill:rgb(58.4%,34.5%,69.8%);fill-opacity:1;" d="M 145.191406 300 C 145.191406 275.148438 165.339844 255 190.191406 255 C 215.046875 255 235.191406 275.148438 235.191406 300 C 235.191406 324.851562 215.046875 345 190.191406 345 C 165.339844 345 145.191406 324.851562 145.191406 300 "></path>
<path style="fill:none;stroke-width:5;stroke-linecap:butt;stroke-linejoin:miter;stroke:rgb(0%,0%,0%);stroke-opacity:1;stroke-miterlimit:10;" d="M 495 150 C 495 174.851562 474.851562 195 450 195 C 425.148438 195 405 174.851562 405 150 C 405 125.148438 425.148438 105 450 105 C 474.851562 105 495 125.148438 495 150 "></path>
<path style="fill:none;stroke-width:5;stroke-linecap:butt;stroke-linejoin:miter;stroke:rgb(0%,0%,0%);stroke-opacity:1;stroke-miterlimit:10;" d="M 732.308594 338.972656 C 710.785156 351.398438 683.261719 344.023438 670.835938 322.5 C 658.410156 300.976562 665.785156 273.457031 687.308594 261.027344 C 708.832031 248.601562 736.351562 255.976562 748.777344 277.5 C 761.207031 299.023438 753.832031 326.542969 732.308594 338.972656 "></path>
<path style="fill:none;stroke-width:5;stroke-linecap:butt;stroke-linejoin:miter;stroke:rgb(0%,0%,0%);stroke-opacity:1;stroke-miterlimit:10;" d="M 687.308594 638.972656 C 665.785156 626.542969 658.410156 599.023438 670.835938 577.5 C 683.261719 555.976562 710.785156 548.601562 732.308594 561.027344 C 753.832031 573.457031 761.207031 600.976562 748.777344 622.5 C 736.351562 644.023438 708.832031 651.398438 687.308594 638.972656 "></path>
<path style="fill:none;stroke-width:5;stroke-linecap:butt;stroke-linejoin:miter;stroke:rgb(0%,0%,0%);stroke-opacity:1;stroke-miterlimit:10;" d="M 405 750 C 405 725.148438 425.148438 705 450 705 C 474.851562 705 495 725.148438 495 750 C 495 774.851562 474.851562 795 450 795 C 425.148438 795 405 774.851562 405 750 "></path>
<path style="fill:none;stroke-width:5;stroke-linecap:butt;stroke-linejoin:miter;stroke:rgb(0%,0%,0%);stroke-opacity:1;stroke-miterlimit:10;" d="M 167.691406 561.027344 C 189.214844 548.601562 216.738281 555.976562 229.164062 577.5 C 241.589844 599.023438 234.214844 626.542969 212.691406 638.972656 C 191.167969 651.398438 163.648438 644.023438 151.222656 622.5 C 138.792969 600.976562 146.167969 573.457031 167.691406 561.027344 "></path>
<path style="fill:none;stroke-width:5;stroke-linecap:butt;stroke-linejoin:miter;stroke:rgb(0%,0%,0%);stroke-opacity:1;stroke-miterlimit:10;" d="M 212.691406 261.027344 C 234.214844 273.457031 241.589844 300.976562 229.164062 322.5 C 216.738281 344.023438 189.214844 351.398438 167.691406 338.972656 C 146.167969 326.542969 138.792969 299.023438 151.222656 277.5 C 163.648438 255.976562 191.167969 248.601562 212.691406 261.027344 "></path>
</g>
</svg>