<?xml version="1.0" encoding="UTF-8" standalone="no"?>
<!-- Created with Inkscape (http://www.inkscape.org/) -->

<svg
   width="500mm"
   height="500mm"
   viewBox="0 0 500 500"
   version="1.1"
   id="svg1"
   sodipodi:docname="logo.svg"
   inkscape:version="1.3.2 (091e20e, 2023-11-25)"
   xmlns:inkscape="http://www.inkscape.org/namespaces/inkscape"
   xmlns:sodipodi="http://sodipodi.sourceforge.net/DTD/sodipodi-0.dtd"
   xmlns="http://www.w3.org/2000/svg"
   xmlns:svg="http://www.w3.org/2000/svg">
  <sodipodi:namedview
     id="namedview1"
     pagecolor="#ffffff"
     bordercolor="#000000"
     borderopacity="0.25"
     inkscape:showpageshadow="false"
     inkscape:pageopacity="0.0"
     inkscape:pagecheckerboard="false"
     inkscape:deskcolor="#d1d1d1"
     inkscape:document-units="mm"
     showguides="true"
     inkscape:zoom="0.21000835"
     inkscape:cx="804.72989"
     inkscape:cy="1011.8645"
     inkscape:window-width="1512"
     inkscape:window-height="858"
     inkscape:window-x="0"
     inkscape:window-y="38"
     inkscape:window-maximized="0"
     inkscape:current-layer="layer2"
     showborder="false"
     borderlayer="false"
     showgrid="false" />
  <defs
     id="defs1">
    <marker
       style="overflow:visible"
       id="marker20"
       refX="0"
       refY="0"
       orient="auto"
       inkscape:stockid="Dot"
       markerWidth="1"
       markerHeight="1"
       viewBox="0 0 1 1"
       inkscape:isstock="true"
       inkscape:collect="always"
       preserveAspectRatio="xMidYMid">
      <path
         transform="scale(0.5)"
         style="fill:context-stroke;fill-rule:evenodd;stroke:none"
         d="M 5,0 C 5,2.76 2.76,5 0,5 -2.76,5 -5,2.76 -5,0 c 0,-2.76 2.3,-5 5,-5 2.76,0 5,2.24 5,5 z"
         sodipodi:nodetypes="sssss"
         id="path20" />
    </marker>
    <marker
       style="overflow:visible"
       id="Dot"
       refX="0"
       refY="0"
       orient="auto"
       inkscape:stockid="Dot"
       markerWidth="1"
       markerHeight="1"
       viewBox="0 0 1 1"
       inkscape:isstock="true"
       inkscape:collect="always"
       preserveAspectRatio="xMidYMid">
      <path
         transform="scale(0.5)"
         style="fill:context-stroke;fill-rule:evenodd;stroke:none"
         d="M 5,0 C 5,2.76 2.76,5 0,5 -2.76,5 -5,2.76 -5,0 c 0,-2.76 2.3,-5 5,-5 2.76,0 5,2.24 5,5 z"
         sodipodi:nodetypes="sssss"
         id="path19" />
    </marker>
    <inkscape:path-effect
       effect="fill_between_many"
       method="originald"
       linkedpaths="#path6,0,1|"
       id="path-effect8" />
    <inkscape:path-effect
       effect="fill_between_many"
       method="originald"
       linkedpaths="#path8,0,1|"
       id="path-effect9" />
    <inkscape:path-effect
       effect="fill_between_many"
       method="originald"
       linkedpaths="#path1-4-6,0,1|"
       id="path-effect10" />
    <inkscape:path-effect
       effect="fill_between_many"
       method="originald"
       linkedpaths="#path1-4-6-4,0,1|"
       id="path-effect11" />
    <inkscape:path-effect
       effect="fill_between_many"
       method="originald"
       linkedpaths="#path1-4-6-4-0,0,1|"
       id="path-effect12" />
    <inkscape:path-effect
       effect="fill_between_many"
       method="originald"
       linkedpaths="#path1-4-6-4-0-1,0,1|"
       id="path-effect13" />
  </defs>
  <circle
     style="display:inline;fill:#ffffff;fill-opacity:1;stroke:#000000;stroke-width:0.999999;stroke-linecap:round;stroke-linejoin:round;stroke-miterlimit:10;stroke-dasharray:none;stroke-opacity:1"
     id="path21"
     cx="-353.55341"
     cy="3.126388e-13"
     inkscape:label="Background-2"
     r="249.5"
     transform="matrix(-0.70710678,-0.70710678,-0.70710678,0.70710678,0,0)"
     sodipodi:insensitive="true" />
  <path
     id="path2"
     style="display:inline;fill:#ff0000;fill-opacity:0.25;stroke:#000000;stroke-width:0.999999;stroke-linecap:round;stroke-linejoin:round;stroke-miterlimit:10;stroke-opacity:1"
     inkscape:label="Background-1"
     d="M 250.00025,0.5 A 249.50001,249.50001 0 0 0 0.5,250.00025 249.50001,249.50001 0 0 0 250.00025,499.5 249.50001,249.50001 0 0 0 499.5,250.00025 249.50001,249.50001 0 0 0 250.00025,0.5 Z m 0,0.49922747 A 249.00101,249.00101 0 0 1 301.56819,6.4551438 C 339.40607,144.15506 466.14544,189.95919 493.52629,198.35033 a 249.00101,249.00101 0 0 1 5.47448,51.64992 A 249.00101,249.00101 0 0 1 250.00025,499.00077 249.00101,249.00101 0 0 1 0.99922747,250.00025 249.00101,249.00101 0 0 1 250.00025,0.99922747 Z"
     sodipodi:insensitive="true" />
  <g
     inkscape:label="StandardNormalSpace"
     inkscape:groupmode="layer"
     id="layer1"
     style="display:inline"
     sodipodi:insensitive="true">
    <path
       d="M 301.67151,5.9670811 A 249.5,249.5 0 0 0 250.00024,0.5002314 249.5,249.5 0 0 0 0.500225,250.00024 249.5,249.5 0 0 0 250.00024,499.49974 249.5,249.5 0 0 0 499.49974,250.00024 249.5,249.5 0 0 0 494.01429,198.24681 C 466.57854,189.83885 339.58526,143.94308 301.67151,5.9670811 Z"
       style="display:inline;fill:#008080;fill-opacity:0.1;stroke:#000000;stroke-width:0.999996"
       id="path8-4"
       inkscape:label="Circle-9" />
    <path
       d="M 425.3668,166.5366 C 393.40244,146.95416 357.34454,117.26686 330.58654,73.260645 A 194.282,194.282 0 0 0 250.00024,55.718046 194.282,194.282 0 0 0 55.718046,250.00024 194.282,194.282 0 0 0 250.00024,444.28193 194.282,194.282 0 0 0 444.28193,250.00024 194.282,194.282 0 0 0 425.3668,166.5366 Z"
       style="display:inline;opacity:1;fill:#008080;fill-opacity:0.1;stroke:#000000;stroke-width:0.999996"
       id="path10"
       inkscape:label="Circle-8" />
    <path
       id="path3-7-5"
       style="display:inline;opacity:1;fill:#008080;fill-opacity:0.1;stroke:#000000;stroke-width:0.999995"
       d="M 407.0265,250 A 157.0265,157.0265 0 0 1 250,407.0265 157.0265,157.0265 0 0 1 92.973495,250 157.0265,157.0265 0 0 1 250,92.973495 157.0265,157.0265 0 0 1 407.0265,250 Z"
       inkscape:label="Circle-7" />
    <path
       id="path3-7-5-2"
       style="display:inline;opacity:1;fill:#008080;fill-opacity:0.1;stroke:#000000;stroke-width:0.999994"
       d="M 377.4175,250 A 127.4175,127.4175 0 0 1 250,377.4175 127.4175,127.4175 0 0 1 122.5825,250 127.4175,127.4175 0 0 1 250,122.5825 127.4175,127.4175 0 0 1 377.4175,250 Z"
       inkscape:label="Circle-6" />
    <path
       id="path3-7-5-2-4"
       style="display:inline;opacity:1;fill:#008080;fill-opacity:0.1;stroke:#000000;stroke-width:0.999994"
       d="M 352.01501,250 A 102.01501,102.01501 0 0 1 250,352.01501 102.01501,102.01501 0 0 1 147.98499,250 102.01501,102.01501 0 0 1 250,147.98499 102.01501,102.01501 0 0 1 352.01501,250 Z"
       inkscape:label="Circle-5" />
    <path
       id="path3-7-5-2-4-4"
       style="display:inline;opacity:1;fill:#008080;fill-opacity:0.1;stroke:#000000;stroke-width:0.999993"
       d="M 329.203,250 A 79.203003,79.203003 0 0 1 250,329.203 79.203003,79.203003 0 0 1 170.797,250 79.203003,79.203003 0 0 1 250,170.797 79.203003,79.203003 0 0 1 329.203,250 Z"
       inkscape:label="Circle-4" />
    <path
       id="path3-7-5-2-4-4-5"
       style="display:inline;opacity:1;fill:#008080;fill-opacity:0.1;stroke:#000000;stroke-width:0.999991"
       d="M 308.0645,250 A 58.064503,58.064503 0 0 1 250,308.0645 58.064503,58.064503 0 0 1 191.9355,250 58.064503,58.064503 0 0 1 250,191.9355 58.064503,58.064503 0 0 1 308.0645,250 Z"
       inkscape:label="Circle-3" />
    <path
       id="path3-7-5-2-4-4-5-2"
       style="display:inline;opacity:1;fill:#008080;fill-opacity:0.1;stroke:#000000;stroke-width:0.999992"
       d="M 288.006,250 A 38.006004,38.006004 0 0 1 250,288.006 38.006004,38.006004 0 0 1 211.994,250 38.006004,38.006004 0 0 1 250,211.994 38.006004,38.006004 0 0 1 288.006,250 Z"
       inkscape:label="Circle-2" />
    <path
       id="path3-7-5-2-4-4-5-2-0"
       style="display:inline;opacity:1;fill:#008080;fill-opacity:0.1;stroke:#000000;stroke-width:0.999994"
       d="M 268.599,250 A 18.599005,18.599005 0 0 1 250,268.599 18.599005,18.599005 0 0 1 231.401,250 18.599005,18.599005 0 0 1 250,231.401 18.599005,18.599005 0 0 1 268.599,250 Z"
       inkscape:label="Circle-1" />
  </g>
  <g
     inkscape:groupmode="layer"
     id="layer3"
     inkscape:label="Iterations"
     style="display:inline"
     sodipodi:insensitive="true">
    <path
       style="opacity:1;fill:none;fill-opacity:0.9;stroke:#000000;stroke-width:1;stroke-linecap:round;stroke-linejoin:round;stroke-miterlimit:10;stroke-dasharray:none;marker-start:url(#marker20);marker-end:url(#Dot)"
       d="M 315.02088,140.42123 373.3869,126.61307"
       id="path18"
       inkscape:label="Iteration-4" />
    <path
       style="display:inline;opacity:1;fill:none;fill-opacity:0.9;stroke:#000000;stroke-width:1;stroke-linecap:round;stroke-linejoin:round;stroke-miterlimit:10;stroke-dasharray:none;marker-start:url(#marker20);marker-end:url(#Dot)"
       d="m 272.53321,174.07296 42.48955,-33.6506"
       id="path17"
       inkscape:label="Iteration-3" />
    <path
       style="display:inline;opacity:1;fill:none;fill-opacity:0.9;stroke:#000000;stroke-width:1;stroke-linecap:round;stroke-linejoin:round;stroke-miterlimit:10;stroke-dasharray:none;marker-start:url(#marker20);marker-end:url(#Dot)"
       d="m 254.49442,212.26068 18.04004,-38.19034"
       id="path16"
       inkscape:label="Iteration-2" />
    <path
       style="display:inline;opacity:1;fill:none;fill-opacity:0.9;stroke:#000000;stroke-width:1;stroke-linecap:round;stroke-linejoin:round;stroke-miterlimit:10;stroke-dasharray:none;marker-start:url(#marker20);marker-end:url(#Dot)"
       d="m 250,250 4.49443,-37.73932"
       id="path15"
       inkscape:label="Iteration-1" />
  </g>
  <g
     inkscape:groupmode="layer"
     id="layer2"
     inkscape:label="Text"
     style="display:inline"
     sodipodi:insensitive="true">
    <ellipse
       style="fill:none;stroke:none;stroke-width:1.08054;stroke-linejoin:round;stroke-miterlimit:10;stroke-dasharray:none;stroke-opacity:1"
       id="path1"
       cx="353.55338"
       cy="2.8421709e-14"
       rx="194.78194"
       ry="194.78195"
       inkscape:label="Circle"
       transform="rotate(45)" />
    <path
       d="m 9.7481956,211.21151 5.8450924,-26.78037 7.358571,1.60608 -4.041539,18.51706 10.434695,2.27748 3.751917,-17.19011 7.358571,1.60609 -3.751917,17.1901 17.069472,3.72559 -1.803553,8.26331 z M 40.103036,177.73486 q -4.822921,-2.06795 -8.291998,-4.63015 -3.469076,-2.5622 -5.276278,-5.55375 -1.863941,-3.01588 -2.090337,-6.40437 -0.202067,-3.44524 1.427962,-7.24683 1.751673,-4.0853 4.500099,-6.26544 2.748426,-2.18013 6.226151,-2.7713 3.502053,-0.6479 7.644253,0.18776 4.166529,0.77893 8.705749,2.72523 9.702582,4.16022 13.600686,10.26497 3.865693,6.02368 0.629964,13.57014 -1.751673,4.08529 -4.524428,6.32217 -2.748426,2.18013 -6.250479,2.82804 -3.477725,0.59117 -7.619924,-0.2445 -4.1422,-0.83566 -8.68142,-2.78197 z m 3.503345,-8.17059 q 2.893753,1.24076 5.487639,2.08427 2.618215,0.78677 4.782589,0.90873 2.131962,0.0409 3.769589,-0.80188 1.661956,-0.89952 2.610779,-3.11239 0.851507,-1.98591 0.616706,-3.63153 -0.291542,-1.66996 -1.653146,-3.19419 -1.361605,-1.52423 -3.793272,-2.90272 -2.464079,-1.45957 -5.981974,-2.96795 -2.780272,-1.19211 -5.374159,-2.03562 -2.569557,-0.90025 -4.758259,-0.96547 -2.164374,-0.12197 -3.82633,0.77755 -1.718696,0.87519 -2.691847,3.1448 -1.703016,3.97182 1.14992,6.87438 2.852935,2.90256 9.661765,5.82202 z M 40.91375,126.15881 q 0.591688,-1.31419 1.338342,-2.74712 0.73015,-1.51866 1.527922,-2.91697 0.832388,-1.44943 1.646663,-2.76201 0.814274,-1.31258 1.541205,-2.38606 1.69617,-2.50481 3.834294,-4.56122 2.121621,-2.14214 4.578128,-3.23737 2.491122,-1.14634 5.246288,-0.92093 2.789782,0.17429 5.754653,2.182 2.198094,1.48848 3.522343,3.05625 1.307747,1.48203 2.015354,3.07959 0.707607,1.59755 0.866194,3.34524 0.142083,1.66196 -0.0077,3.42454 l 21.492308,1.95339 -5.469285,8.07672 -18.887277,-2.27701 -2.83849,4.19172 14.00646,9.4847 -4.742355,7.00323 z m 12.636742,-7.10023 q -0.726931,1.07349 -1.402742,2.18159 -0.641197,1.05699 -0.868614,1.72314 l 10.377048,7.02699 1.869249,-2.7604 q 1.973097,-2.91375 1.890183,-5.65402 -0.08291,-2.74028 -3.150022,-4.81722 -2.300331,-1.55771 -4.547533,-0.99179 -2.29832,0.53131 -4.167569,3.29171 z m 42.436978,-7.18447 4.97662,-4.9765 -20.953683,-20.954169 -4.190835,4.190736 5.282073,5.282198 -4.801998,4.801885 -10.083958,-10.084196 23.922681,-23.922118 10.08396,10.084196 -4.801999,4.801885 -5.282074,-5.282198 -4.14718,4.147082 20.953683,20.954179 4.93296,-4.932851 4.80188,4.802001 -15.89024,15.88987 z m 23.90187,-67.236591 6.64551,-4.499888 15.50731,22.901437 q 2.35378,3.476111 3.16436,6.655137 0.77597,3.127906 0.23131,5.957121 -0.52815,2.743482 -2.27469,5.119044 -1.74653,2.375562 -4.50697,4.244746 -6.64551,4.499888 -12.04674,3.460088 -5.35011,-1.074414 -9.53847,-7.259847 l -16.09575,-23.770465 7.00334,-4.74219 15.16116,22.390245 q 2.76916,4.089542 5.49775,4.926015 2.72858,0.836473 5.89797,-1.309627 3.06716,-2.076871 3.08091,-4.919382 0.0302,-2.928244 -2.56583,-6.76219 z m 34.78873,1.052514 -0.28371,0.121637 2.35962,4.563524 8.05239,18.781213 -7.37631,3.162568 -17.02921,-39.718577 6.8089,-2.919294 24.14343,18.397831 0.2837,-0.121638 -2.55417,-4.547282 -8.36865,-19.518844 7.37631,-3.162568 17.02922,39.718577 -6.8089,2.919294 z m 56.71631,-1.543331 -12.60614,2.75111 -0.8549,9.980886 -8.26335,1.803359 4.41728,-45.19641 8.26335,-1.803359 22.78545,39.259805 -8.68557,1.895501 z m -12.12397,-4.304924 9.04747,-1.974481 -7.36266,-13.179465 -0.54285,0.118469 z"
       id="text3"
       style="font-weight:bold;font-size:61.7361px;line-height:1;font-family:'PT Mono';-inkscape-font-specification:'PT Mono, Bold';text-align:center;text-anchor:middle;stroke-linejoin:round;stroke-miterlimit:10"
       inkscape:label="Text"
       aria-label="FORTUNA" />
  </g>
</svg>
