<?xml version="1.0" encoding="UTF-8" standalone="no"?>
<!-- Created with Inkscape (http://www.inkscape.org/) -->

<svg
   width="1280"
   height="640"
   viewBox="0 0 338.66666 169.33333"
   version="1.1"
   id="svg1"
   inkscape:version="1.3.2 (091e20e, 2023-11-25)"
   sodipodi:docname="social-preview.svg"
   xml:space="preserve"
   inkscape:export-filename="FortunaSocialPreview.png"
   inkscape:export-xdpi="96"
   inkscape:export-ydpi="96"
   xmlns:inkscape="http://www.inkscape.org/namespaces/inkscape"
   xmlns:sodipodi="http://sodipodi.sourceforge.net/DTD/sodipodi-0.dtd"
   xmlns:xlink="http://www.w3.org/1999/xlink"
   xmlns="http://www.w3.org/2000/svg"
   xmlns:svg="http://www.w3.org/2000/svg"><sodipodi:namedview
     id="namedview1"
     pagecolor="#ffffff"
     bordercolor="#000000"
     borderopacity="0.25"
     inkscape:showpageshadow="2"
     inkscape:pageopacity="0.0"
     inkscape:pagecheckerboard="0"
     inkscape:deskcolor="#d1d1d1"
     inkscape:document-units="px"
     inkscape:zoom="0.51008304"
     inkscape:cx="629.3093"
     inkscape:cy="475.41279"
     inkscape:window-width="1512"
     inkscape:window-height="858"
     inkscape:window-x="0"
     inkscape:window-y="38"
     inkscape:window-maximized="0"
     inkscape:current-layer="svg1"
     showguides="true" /><defs
     id="defs1"><linearGradient
       id="linearGradient4"
       inkscape:collect="always"><stop
         style="stop-color:#008080;stop-opacity:0;"
         offset="0"
         id="stop5" /><stop
         style="stop-color:#008080;stop-opacity:1;"
         offset="1"
         id="stop4" /></linearGradient><inkscape:path-effect
       effect="fill_between_many"
       method="originald"
       linkedpaths="#path6,0,1"
       id="path-effect8" /><inkscape:path-effect
       effect="fill_between_many"
       method="originald"
       linkedpaths="#path8,0,1"
       id="path-effect9" /><inkscape:path-effect
       effect="fill_between_many"
       method="originald"
       linkedpaths="#path1-4-6,0,1"
       id="path-effect10" /><inkscape:path-effect
       effect="fill_between_many"
       method="originald"
       linkedpaths="#path1-4-6-4,0,1"
       id="path-effect11" /><inkscape:path-effect
       effect="fill_between_many"
       method="originald"
       linkedpaths="#path1-4-6-4-0,0,1"
       id="path-effect12" /><inkscape:path-effect
       effect="fill_between_many"
       method="originald"
       linkedpaths="#path1-4-6-4-0-1,0,1"
       id="path-effect13" /><inkscape:path-effect
       effect="fill_between_many"
       method="originald"
       linkedpaths="#path6,0,1"
       id="path-effect8-8" /><inkscape:path-effect
       effect="fill_between_many"
       method="originald"
       linkedpaths="#path8,0,1"
       id="path-effect9-9" /><inkscape:path-effect
       effect="fill_between_many"
       method="originald"
       linkedpaths="#path1-4-6,0,1"
       id="path-effect10-4" /><inkscape:path-effect
       effect="fill_between_many"
       method="originald"
       linkedpaths="#path1-4-6-4,0,1"
       id="path-effect11-7" /><inkscape:path-effect
       effect="fill_between_many"
       method="originald"
       linkedpaths="#path1-4-6-4-0,0,1"
       id="path-effect12-0" /><inkscape:path-effect
       effect="fill_between_many"
       method="originald"
       linkedpaths="#path1-4-6-4-0-1,0,1"
       id="path-effect13-4" /><inkscape:path-effect
       effect="fill_between_many"
       method="originald"
       linkedpaths="#path6,0,1"
       id="path-effect8-7" /><inkscape:path-effect
       effect="fill_between_many"
       method="originald"
       linkedpaths="#path8,0,1"
       id="path-effect9-3" /><inkscape:path-effect
       effect="fill_between_many"
       method="originald"
       linkedpaths="#path1-4-6,0,1"
       id="path-effect10-7" /><inkscape:path-effect
       effect="fill_between_many"
       method="originald"
       linkedpaths="#path1-4-6-4,0,1"
       id="path-effect11-9" /><inkscape:path-effect
       effect="fill_between_many"
       method="originald"
       linkedpaths="#path1-4-6-4-0,0,1"
       id="path-effect12-02" /><inkscape:path-effect
       effect="fill_between_many"
       method="originald"
       linkedpaths="#path1-4-6-4-0-1,0,1"
       id="path-effect13-3" /><linearGradient
       inkscape:collect="always"
       xlink:href="#linearGradient4"
       id="linearGradient5"
       x1="0"
       y1="84.666664"
       x2="338.66666"
       y2="84.666664"
       gradientUnits="userSpaceOnUse" /><inkscape:path-effect
       effect="fill_between_many"
       method="originald"
       linkedpaths="#path4,0,1|#path3,0,1|#path1,0,1|#text7,0,1|"
       id="path-effect5" /><marker
       style="overflow:visible"
       id="marker20-8"
       refX="0"
       refY="0"
       orient="auto"
       inkscape:stockid="Dot"
       markerWidth="1"
       markerHeight="1"
       viewBox="0 0 1 1"
       inkscape:isstock="true"
       inkscape:collect="always"
       preserveAspectRatio="xMidYMid"><path
         transform="scale(0.5)"
         style="fill:context-stroke;fill-rule:evenodd;stroke:none"
         d="M 5,0 C 5,2.76 2.76,5 0,5 -2.76,5 -5,2.76 -5,0 c 0,-2.76 2.3,-5 5,-5 2.76,0 5,2.24 5,5 z"
         sodipodi:nodetypes="sssss"
         id="path20-5" /></marker><marker
       style="overflow:visible"
       id="Dot-5"
       refX="0"
       refY="0"
       orient="auto"
       inkscape:stockid="Dot"
       markerWidth="1"
       markerHeight="1"
       viewBox="0 0 1 1"
       inkscape:isstock="true"
       inkscape:collect="always"
       preserveAspectRatio="xMidYMid"><path
         transform="scale(0.5)"
         style="fill:context-stroke;fill-rule:evenodd;stroke:none"
         d="M 5,0 C 5,2.76 2.76,5 0,5 -2.76,5 -5,2.76 -5,0 c 0,-2.76 2.3,-5 5,-5 2.76,0 5,2.24 5,5 z"
         sodipodi:nodetypes="sssss"
         id="path19-5" /></marker><inkscape:path-effect
       effect="fill_between_many"
       method="originald"
       linkedpaths="#path6,0,1"
       id="path-effect8-4" /><inkscape:path-effect
       effect="fill_between_many"
       method="originald"
       linkedpaths="#path8,0,1"
       id="path-effect9-2" /><inkscape:path-effect
       effect="fill_between_many"
       method="originald"
       linkedpaths="#path1-4-6,0,1"
       id="path-effect10-1" /><inkscape:path-effect
       effect="fill_between_many"
       method="originald"
       linkedpaths="#path1-4-6-4,0,1"
       id="path-effect11-92" /><inkscape:path-effect
       effect="fill_between_many"
       method="originald"
       linkedpaths="#path1-4-6-4-0,0,1"
       id="path-effect12-4" /><inkscape:path-effect
       effect="fill_between_many"
       method="originald"
       linkedpaths="#path1-4-6-4-0-1,0,1"
       id="path-effect13-5" /></defs><rect
     style="fill:#ffffff;fill-opacity:1;stroke:none;stroke-width:1;stroke-linejoin:round;stroke-miterlimit:10"
     id="rect6-2"
     width="338.66666"
     height="169.33333"
     x="3.8146973e-06"
     y="3.8146973e-06"
     inkscape:label="Background-2"
     sodipodi:insensitive="true" /><rect
     style="fill:url(#linearGradient5);stroke:none;stroke-width:1;stroke-linejoin:round;stroke-miterlimit:10"
     id="rect6"
     width="338.66666"
     height="169.33333"
     x="0"
     y="0"
     inkscape:label="Background-1"
     sodipodi:insensitive="true" /><g
     id="g1"
     transform="matrix(0.24341664,0,0,0.24341666,21.166666,21.166666)"
     inkscape:label="Logo"
     sodipodi:insensitive="true"><circle
       style="display:inline;fill:#ffffff;fill-opacity:1;stroke:#000000;stroke-width:0.999999;stroke-linecap:round;stroke-linejoin:round;stroke-miterlimit:10;stroke-dasharray:none;stroke-opacity:1"
       id="path21-8"
       cx="-353.55341"
       cy="3.126388e-13"
       inkscape:label="Background-2"
       r="249.5"
       transform="matrix(-0.70710678,-0.70710678,-0.70710678,0.70710678,0,0)" /><path
       id="path2-6"
       style="display:inline;fill:#ff0000;fill-opacity:0.25;stroke:#000000;stroke-width:0.999999;stroke-linecap:round;stroke-linejoin:round;stroke-miterlimit:10;stroke-opacity:1"
       inkscape:label="Background-1"
       d="M 250.00025,0.5 A 249.50001,249.50001 0 0 0 0.5,250.00025 249.50001,249.50001 0 0 0 250.00025,499.5 249.50001,249.50001 0 0 0 499.5,250.00025 249.50001,249.50001 0 0 0 250.00025,0.5 Z m 0,0.49922747 A 249.00101,249.00101 0 0 1 301.56819,6.4551438 C 339.40607,144.15506 466.14544,189.95919 493.52629,198.35033 a 249.00101,249.00101 0 0 1 5.47448,51.64992 A 249.00101,249.00101 0 0 1 250.00025,499.00077 249.00101,249.00101 0 0 1 0.99922747,250.00025 249.00101,249.00101 0 0 1 250.00025,0.99922747 Z" /><g
       inkscape:label="StandardNormalSpace"
       id="layer1-2"
       style="display:inline"><path
         d="M 301.67151,5.9670811 A 249.5,249.5 0 0 0 250.00024,0.5002314 249.5,249.5 0 0 0 0.500225,250.00024 249.5,249.5 0 0 0 250.00024,499.49974 249.5,249.5 0 0 0 499.49974,250.00024 249.5,249.5 0 0 0 494.01429,198.24681 C 466.57854,189.83885 339.58526,143.94308 301.67151,5.9670811 Z"
         style="display:inline;fill:#008080;fill-opacity:0.1;stroke:#000000;stroke-width:0.999996"
         id="path8-4-5"
         inkscape:label="Circle-9" /><path
         d="M 425.3668,166.5366 C 393.40244,146.95416 357.34454,117.26686 330.58654,73.260645 A 194.282,194.282 0 0 0 250.00024,55.718046 194.282,194.282 0 0 0 55.718046,250.00024 194.282,194.282 0 0 0 250.00024,444.28193 194.282,194.282 0 0 0 444.28193,250.00024 194.282,194.282 0 0 0 425.3668,166.5366 Z"
         style="display:inline;opacity:1;fill:#008080;fill-opacity:0.1;stroke:#000000;stroke-width:0.999996"
         id="path10-1"
         inkscape:label="Circle-8" /><path
         id="path3-7-5-3"
         style="display:inline;opacity:1;fill:#008080;fill-opacity:0.1;stroke:#000000;stroke-width:0.999995"
         d="M 407.0265,250 A 157.0265,157.0265 0 0 1 250,407.0265 157.0265,157.0265 0 0 1 92.973495,250 157.0265,157.0265 0 0 1 250,92.973495 157.0265,157.0265 0 0 1 407.0265,250 Z"
         inkscape:label="Circle-7" /><path
         id="path3-7-5-2-9"
         style="display:inline;opacity:1;fill:#008080;fill-opacity:0.1;stroke:#000000;stroke-width:0.999994"
         d="M 377.4175,250 A 127.4175,127.4175 0 0 1 250,377.4175 127.4175,127.4175 0 0 1 122.5825,250 127.4175,127.4175 0 0 1 250,122.5825 127.4175,127.4175 0 0 1 377.4175,250 Z"
         inkscape:label="Circle-6" /><path
         id="path3-7-5-2-4-7"
         style="display:inline;opacity:1;fill:#008080;fill-opacity:0.1;stroke:#000000;stroke-width:0.999994"
         d="M 352.01501,250 A 102.01501,102.01501 0 0 1 250,352.01501 102.01501,102.01501 0 0 1 147.98499,250 102.01501,102.01501 0 0 1 250,147.98499 102.01501,102.01501 0 0 1 352.01501,250 Z"
         inkscape:label="Circle-5" /><path
         id="path3-7-5-2-4-4-3"
         style="display:inline;opacity:1;fill:#008080;fill-opacity:0.1;stroke:#000000;stroke-width:0.999993"
         d="M 329.203,250 A 79.203003,79.203003 0 0 1 250,329.203 79.203003,79.203003 0 0 1 170.797,250 79.203003,79.203003 0 0 1 250,170.797 79.203003,79.203003 0 0 1 329.203,250 Z"
         inkscape:label="Circle-4" /><path
         id="path3-7-5-2-4-4-5-7"
         style="display:inline;opacity:1;fill:#008080;fill-opacity:0.1;stroke:#000000;stroke-width:0.999991"
         d="M 308.0645,250 A 58.064503,58.064503 0 0 1 250,308.0645 58.064503,58.064503 0 0 1 191.9355,250 58.064503,58.064503 0 0 1 250,191.9355 58.064503,58.064503 0 0 1 308.0645,250 Z"
         inkscape:label="Circle-3" /><path
         id="path3-7-5-2-4-4-5-2-5"
         style="display:inline;opacity:1;fill:#008080;fill-opacity:0.1;stroke:#000000;stroke-width:0.999992"
         d="M 288.006,250 A 38.006004,38.006004 0 0 1 250,288.006 38.006004,38.006004 0 0 1 211.994,250 38.006004,38.006004 0 0 1 250,211.994 38.006004,38.006004 0 0 1 288.006,250 Z"
         inkscape:label="Circle-2" /><path
         id="path3-7-5-2-4-4-5-2-0-0"
         style="display:inline;opacity:1;fill:#008080;fill-opacity:0.1;stroke:#000000;stroke-width:0.999994"
         d="M 268.599,250 A 18.599005,18.599005 0 0 1 250,268.599 18.599005,18.599005 0 0 1 231.401,250 18.599005,18.599005 0 0 1 250,231.401 18.599005,18.599005 0 0 1 268.599,250 Z"
         inkscape:label="Circle-1" /></g><g
       id="layer3-2"
       inkscape:label="Iterations"
       style="display:inline"><path
         style="opacity:1;fill:none;fill-opacity:0.9;stroke:#000000;stroke-width:1;stroke-linecap:round;stroke-linejoin:round;stroke-miterlimit:10;stroke-dasharray:none;marker-start:url(#marker20-8);marker-end:url(#Dot-5)"
         d="M 315.02088,140.42123 373.3869,126.61307"
         id="path18-1"
         inkscape:label="Iteration-4" /><path
         style="display:inline;opacity:1;fill:none;fill-opacity:0.9;stroke:#000000;stroke-width:1;stroke-linecap:round;stroke-linejoin:round;stroke-miterlimit:10;stroke-dasharray:none;marker-start:url(#marker20-8);marker-end:url(#Dot-5)"
         d="m 272.53321,174.07296 42.48955,-33.6506"
         id="path17-8"
         inkscape:label="Iteration-3" /><path
         style="display:inline;opacity:1;fill:none;fill-opacity:0.9;stroke:#000000;stroke-width:1;stroke-linecap:round;stroke-linejoin:round;stroke-miterlimit:10;stroke-dasharray:none;marker-start:url(#marker20-8);marker-end:url(#Dot-5)"
         d="m 254.49442,212.26068 18.04004,-38.19034"
         id="path16-7"
         inkscape:label="Iteration-2" /><path
         style="display:inline;opacity:1;fill:none;fill-opacity:0.9;stroke:#000000;stroke-width:1;stroke-linecap:round;stroke-linejoin:round;stroke-miterlimit:10;stroke-dasharray:none;marker-start:url(#marker20-8);marker-end:url(#Dot-5)"
         d="m 250,250 4.49443,-37.73932"
         id="path15-1"
         inkscape:label="Iteration-1" /></g><g
       id="layer2-5"
       inkscape:label="Text"
       style="display:inline"><ellipse
         style="fill:none;stroke:none;stroke-width:1.08054;stroke-linejoin:round;stroke-miterlimit:10;stroke-dasharray:none;stroke-opacity:1"
         id="path1-5"
         cx="353.55338"
         cy="2.8421709e-14"
         rx="194.78194"
         ry="194.78195"
         inkscape:label="Circle"
         transform="rotate(45)" /><path
         d="m 9.7481956,211.21151 5.8450924,-26.78037 7.358571,1.60608 -4.041539,18.51706 10.434695,2.27748 3.751917,-17.19011 7.358571,1.60609 -3.751917,17.1901 17.069472,3.72559 -1.803553,8.26331 z M 40.103036,177.73486 q -4.822921,-2.06795 -8.291998,-4.63015 -3.469076,-2.5622 -5.276278,-5.55375 -1.863941,-3.01588 -2.090337,-6.40437 -0.202067,-3.44524 1.427962,-7.24683 1.751673,-4.0853 4.500099,-6.26544 2.748426,-2.18013 6.226151,-2.7713 3.502053,-0.6479 7.644253,0.18776 4.166529,0.77893 8.705749,2.72523 9.702582,4.16022 13.600686,10.26497 3.865693,6.02368 0.629964,13.57014 -1.751673,4.08529 -4.524428,6.32217 -2.748426,2.18013 -6.250479,2.82804 -3.477725,0.59117 -7.619924,-0.2445 -4.1422,-0.83566 -8.68142,-2.78197 z m 3.503345,-8.17059 q 2.893753,1.24076 5.487639,2.08427 2.618215,0.78677 4.782589,0.90873 2.131962,0.0409 3.769589,-0.80188 1.661956,-0.89952 2.610779,-3.11239 0.851507,-1.98591 0.616706,-3.63153 -0.291542,-1.66996 -1.653146,-3.19419 -1.361605,-1.52423 -3.793272,-2.90272 -2.464079,-1.45957 -5.981974,-2.96795 -2.780272,-1.19211 -5.374159,-2.03562 -2.569557,-0.90025 -4.758259,-0.96547 -2.164374,-0.12197 -3.82633,0.77755 -1.718696,0.87519 -2.691847,3.1448 -1.703016,3.97182 1.14992,6.87438 2.852935,2.90256 9.661765,5.82202 z M 40.91375,126.15881 q 0.591688,-1.31419 1.338342,-2.74712 0.73015,-1.51866 1.527922,-2.91697 0.832388,-1.44943 1.646663,-2.76201 0.814274,-1.31258 1.541205,-2.38606 1.69617,-2.50481 3.834294,-4.56122 2.121621,-2.14214 4.578128,-3.23737 2.491122,-1.14634 5.246288,-0.92093 2.789782,0.17429 5.754653,2.182 2.198094,1.48848 3.522343,3.05625 1.307747,1.48203 2.015354,3.07959 0.707607,1.59755 0.866194,3.34524 0.142083,1.66196 -0.0077,3.42454 l 21.492308,1.95339 -5.469285,8.07672 -18.887277,-2.27701 -2.83849,4.19172 14.00646,9.4847 -4.742355,7.00323 z m 12.636742,-7.10023 q -0.726931,1.07349 -1.402742,2.18159 -0.641197,1.05699 -0.868614,1.72314 l 10.377048,7.02699 1.869249,-2.7604 q 1.973097,-2.91375 1.890183,-5.65402 -0.08291,-2.74028 -3.150022,-4.81722 -2.300331,-1.55771 -4.547533,-0.99179 -2.29832,0.53131 -4.167569,3.29171 z m 42.436978,-7.18447 4.97662,-4.9765 -20.953683,-20.954169 -4.190835,4.190736 5.282073,5.282198 -4.801998,4.801885 -10.083958,-10.084196 23.922681,-23.922118 10.08396,10.084196 -4.801999,4.801885 -5.282074,-5.282198 -4.14718,4.147082 20.953683,20.954179 4.93296,-4.932851 4.80188,4.802001 -15.89024,15.88987 z m 23.90187,-67.236591 6.64551,-4.499888 15.50731,22.901437 q 2.35378,3.476111 3.16436,6.655137 0.77597,3.127906 0.23131,5.957121 -0.52815,2.743482 -2.27469,5.119044 -1.74653,2.375562 -4.50697,4.244746 -6.64551,4.499888 -12.04674,3.460088 -5.35011,-1.074414 -9.53847,-7.259847 l -16.09575,-23.770465 7.00334,-4.74219 15.16116,22.390245 q 2.76916,4.089542 5.49775,4.926015 2.72858,0.836473 5.89797,-1.309627 3.06716,-2.076871 3.08091,-4.919382 0.0302,-2.928244 -2.56583,-6.76219 z m 34.78873,1.052514 -0.28371,0.121637 2.35962,4.563524 8.05239,18.781213 -7.37631,3.162568 -17.02921,-39.718577 6.8089,-2.919294 24.14343,18.397831 0.2837,-0.121638 -2.55417,-4.547282 -8.36865,-19.518844 7.37631,-3.162568 17.02922,39.718577 -6.8089,2.919294 z m 56.71631,-1.543331 -12.60614,2.75111 -0.8549,9.980886 -8.26335,1.803359 4.41728,-45.19641 8.26335,-1.803359 22.78545,39.259805 -8.68557,1.895501 z m -12.12397,-4.304924 9.04747,-1.974481 -7.36266,-13.179465 -0.54285,0.118469 z"
         id="text3"
         style="font-weight:bold;font-size:61.7361px;line-height:1;font-family:'PT Mono';-inkscape-font-specification:'PT Mono, Bold';text-align:center;text-anchor:middle;stroke-linejoin:round;stroke-miterlimit:10"
         inkscape:label="Text"
         aria-label="FORTUNA" /></g></g><g
     id="text7-6"
     style="font-weight:bold;font-size:11.8476px;line-height:1;font-family:'PT Mono';-inkscape-font-specification:'PT Mono, Bold';fill:#ffffff;stroke-width:1;stroke-linejoin:round;stroke-miterlimit:10"
     aria-label="STRUCTURAL AND SYSTEM&#10;RELIABILITY ANALYSIS&#10;IN JULIA"
     inkscape:label="Text"
     sodipodi:insensitive="true"><path
       d="m 169.3333,118.02158 h 2.09703 v -5.40253 h -2.09703 v -1.44541 h 5.82904 v 1.44541 h -2.10888 v 5.40253 h 2.10888 v 1.44541 h -5.82904 z m 8.66063,-3.45951 h -0.0592 l 0.0711,0.98335 v 3.92157 h -1.5402 v -8.29335 h 1.42172 l 2.86713,5.07079 h 0.0592 l -0.10663,-0.9952 v -4.07559 h 1.54019 v 8.29335 h -1.42172 z m 13.11534,-3.38843 h 4.95231 v 5.28405 q 0,0.67531 -0.17771,1.2677 -0.16587,0.59238 -0.61608,1.05444 -0.28434,0.28434 -0.61607,0.45021 -0.31989,0.16586 -0.62793,0.2488 -0.30804,0.0829 -0.58053,0.10663 -0.2725,0.0237 -0.45021,0.0237 -0.56869,0 -1.10183,-0.13032 -0.53315,-0.11848 -1.06629,-0.43837 l 0.58053,-1.30324 q 0.45021,0.26065 0.7701,0.34359 0.33173,0.0829 0.75825,0.0829 0.26065,0 0.55684,-0.0948 0.30804,-0.10663 0.53314,-0.34358 0.41467,-0.45021 0.41467,-1.25585 v -3.85049 h -3.32919 z m 10.99461,0 h 1.5402 v 5.30774 q 0,0.80564 -0.21326,1.39803 -0.21326,0.58053 -0.60423,0.9715 -0.37912,0.37913 -0.91227,0.56869 -0.53314,0.18956 -1.17291,0.18956 -1.5402,0 -2.2866,-0.7464 -0.73455,-0.7464 -0.73455,-2.17997 v -5.50915 h 1.62312 v 5.18927 q 0,0.94781 0.34359,1.37432 0.34358,0.42652 1.07813,0.42652 0.71086,0 1.0189,-0.45021 0.31988,-0.46206 0.31988,-1.35063 z m 7.03751,4.91677 h 1.4691 v 3.37658 h -5.44991 v -8.29335 h 1.62313 v 6.84794 h 2.35768 z m 2.84343,1.93117 h 2.09704 v -5.40253 h -2.09704 v -1.44541 h 5.82904 v 1.44541 h -2.10888 v 5.40253 h 2.10888 v 1.44541 h -5.82904 z m 11.20787,-0.39097 h -2.47615 l -0.56869,1.83638 h -1.62313 l 2.67757,-8.29335 h 1.62312 l 2.66572,8.29335 h -1.70606 z m -2.09703,-1.30324 h 1.77715 l -0.84119,-2.77235 h -0.10663 z"
       id="path4"
       inkscape:label="Text-4"
       style="fill:#ffffff;fill-opacity:1;stroke:#000000;stroke-width:0.396875;stroke-dasharray:none;stroke-opacity:1" /><path
       d="m 169.42808,99.408938 q 0.2725,-0.04739 0.58054,-0.08293 0.31988,-0.04739 0.62792,-0.07109 0.31989,-0.0237 0.61608,-0.03554 0.29619,-0.01185 0.54499,-0.01185 0.58053,0 1.13737,0.118477 0.56869,0.106628 1.00705,0.379124 0.45021,0.272496 0.71086,0.734551 0.27249,0.46206 0.27249,1.14922 0,0.50945 -0.10662,0.88858 -0.0948,0.36727 -0.2725,0.65162 -0.17771,0.28434 -0.43836,0.4976 -0.2488,0.20141 -0.54499,0.36727 l 2.00225,3.62538 h -1.87193 l -1.67052,-3.24625 h -0.9715 v 3.24625 h -1.62313 z m 2.488,1.244002 q -0.2488,0 -0.4976,0.0118 -0.23695,0.0119 -0.36727,0.0474 v 2.40507 h 0.63977 q 0.67532,0 1.10183,-0.30804 0.42651,-0.30804 0.42651,-1.0189 0,-0.53314 -0.33173,-0.82933 -0.33173,-0.30804 -0.97151,-0.30804 z m 4.71537,-1.326935 h 5.43807 v 1.445415 h -3.81494 v 1.93116 h 3.51874 v 1.44541 h -3.51874 v 2.02595 h 3.87417 v 1.44541 h -5.4973 z m 11.18417,4.916765 h 1.46911 v 3.37658 h -5.44991 v -8.293345 h 1.62312 v 6.847935 h 2.35768 z m 2.84344,1.93117 h 2.09703 v -5.40252 h -2.09703 v -1.445415 h 5.82904 v 1.445415 h -2.10888 v 5.40252 h 2.10888 v 1.44541 h -5.82904 z m 11.20787,-0.39097 h -2.47615 l -0.56869,1.83638 h -1.62313 l 2.67757,-8.293345 h 1.62312 l 2.66572,8.293345 h -1.70606 z m -2.09703,-1.30324 h 1.77715 l -0.84119,-2.77235 h -0.10663 z m 10.78136,-3.22256 q 0,0.30804 -0.0829,0.61608 -0.0711,0.30804 -0.2488,0.56868 -0.17771,0.2488 -0.46206,0.45021 -0.28434,0.18957 -0.68716,0.28435 v 0.0711 q 0.35543,0.0592 0.67532,0.20141 0.31988,0.14217 0.55684,0.39097 0.23695,0.24881 0.36727,0.60423 0.14217,0.35543 0.14217,0.84119 0,0.63977 -0.27249,1.11367 -0.2725,0.46206 -0.73455,0.75825 -0.45021,0.29619 -1.03075,0.43837 -0.58053,0.14217 -1.19661,0.14217 -0.20141,0 -0.5213,0 -0.30804,0 -0.67531,-0.0237 -0.35543,-0.0118 -0.73456,-0.0474 -0.36727,-0.0355 -0.67531,-0.10663 v -8.174867 q 0.2251,-0.03554 0.50945,-0.07109 0.29619,-0.03554 0.62792,-0.05924 0.33174,-0.0237 0.67532,-0.03554 0.35543,-0.01185 0.69901,-0.01185 0.58053,0 1.12552,0.09478 0.55684,0.08293 0.98336,0.308039 0.43836,0.225105 0.69901,0.627918 0.26065,0.40282 0.26065,1.0189 z m -2.96191,5.14187 q 0.29619,0 0.56868,-0.0711 0.28435,-0.0711 0.4976,-0.21326 0.21326,-0.15402 0.34359,-0.37912 0.13032,-0.22511 0.13032,-0.53315 0,-0.39097 -0.15402,-0.61607 -0.15402,-0.22511 -0.40282,-0.34359 -0.2488,-0.13032 -0.55684,-0.16586 -0.30804,-0.0356 -0.61608,-0.0356 h -0.86487 v 2.2866 q 0.0592,0.0237 0.18956,0.0355 0.13032,0.0118 0.2725,0.0237 0.15401,0 0.30803,0.0118 0.16587,0 0.28435,0 z m -0.53315,-3.58983 q 0.16587,0 0.37913,-0.0118 0.2251,-0.0118 0.36727,-0.0355 0.45021,-0.14217 0.7701,-0.42652 0.33173,-0.28434 0.33173,-0.7464 0,-0.30804 -0.11847,-0.50944 -0.11848,-0.20141 -0.31989,-0.31989 -0.18956,-0.11848 -0.43836,-0.16587 -0.2488,-0.0474 -0.5213,-0.0474 -0.30804,0 -0.56868,0.0118 -0.26065,0.0118 -0.40282,0.0355 v 2.21551 z m 4.92862,3.36473 h 2.09704 v -5.40252 h -2.09704 v -1.445415 h 5.82904 v 1.445415 h -2.10888 v 5.40252 h 2.10888 v 1.44541 h -5.82904 z m 11.37374,-1.93117 h 1.46911 v 3.37658 h -5.44992 v -8.293345 h 1.62313 v 6.847935 h 2.35768 z m 2.84344,1.93117 h 2.09703 v -5.40252 H 226.202 v -1.445415 h 5.82904 v 1.445415 h -2.10888 v 5.40252 h 2.10888 v 1.44541 H 226.202 Z m 7.86684,0.14217 h 1.35063 v -5.68687 h -1.13738 v 1.43357 h -1.30324 v -2.736805 h 6.49251 v 2.736805 h -1.30324 v -1.43357 h -1.12553 v 5.68687 h 1.33879 v 1.30324 h -4.31254 z m 8.45922,-1.75345 -2.67757,-5.236655 h 1.93116 l 1.59944,3.423965 h 0.0592 l 1.63498,-3.423965 h 1.7416 l -2.66572,5.224805 v 3.06854 h -1.62312 z m 16.20757,1.22031 h -2.47616 l -0.56868,1.83638 h -1.62313 l 2.67757,-8.293345 h 1.62312 l 2.66572,8.293345 h -1.70606 z m -2.09703,-1.30324 h 1.77714 l -0.84118,-2.77235 h -0.10663 z m 6.65838,-1.7653 h -0.0592 l 0.0711,0.98335 v 3.92157 h -1.54019 v -8.293345 h 1.42172 l 2.86713,5.070785 h 0.0592 l -0.10662,-0.9952 v -4.075585 h 1.54019 v 8.293345 h -1.42172 z m 9.65582,3.06854 h -2.47616 l -0.56868,1.83638 h -1.62313 l 2.67757,-8.293345 h 1.62312 l 2.66572,8.293345 h -1.70606 z m -2.09703,-1.30324 h 1.77714 l -0.84118,-2.77235 h -0.10663 z m 9.37149,-0.23696 h 1.4691 v 3.37658 h -5.44991 v -8.293345 h 1.62313 v 6.847935 h 2.35768 z m 4.95232,0.31989 -2.67757,-5.236655 h 1.93116 l 1.59944,3.423965 h 0.0592 l 1.63498,-3.423965 h 1.7416 l -2.66572,5.224805 v 3.06854 h -1.62312 z m 5.13003,0.34358 h 1.30324 v 1.17292 q 0.0355,0.0118 0.0711,0.0237 0.27249,0.11848 0.59238,0.20141 0.33173,0.0711 0.69901,0.0711 0.66347,0 1.03074,-0.26065 0.36728,-0.27249 0.36728,-0.7227 0,-0.40282 -0.30804,-0.65162 -0.29619,-0.24881 -0.7464,-0.43837 -0.43836,-0.18956 -0.97151,-0.37912 -0.52129,-0.18956 -0.9715,-0.47391 -0.43837,-0.29619 -0.7464,-0.73455 -0.2962,-0.43836 -0.2962,-1.13737 0,-0.53315 0.20141,-0.97151 0.21326,-0.45021 0.58054,-0.770097 0.37912,-0.319886 0.90042,-0.497601 0.5213,-0.177714 1.16107,-0.177714 0.7227,0 1.42171,0.130324 0.69901,0.130324 1.11368,0.355429 v 2.405069 h -1.30324 v -1.31509 q -0.0355,0 -0.0711,-0.0118 -0.26065,-0.0711 -0.56869,-0.10663 -0.29619,-0.0474 -0.59238,-0.0474 -0.56869,0 -0.90042,0.2251 -0.31989,0.22511 -0.31989,0.60423 0,0.39097 0.29619,0.63977 0.30804,0.2488 0.7464,0.45021 0.45021,0.20141 0.97151,0.40282 0.53314,0.20141 0.97151,0.4976 0.45021,0.28435 0.7464,0.72271 0.30804,0.43836 0.30804,1.10183 0,0.63977 -0.23696,1.12553 -0.23695,0.4739 -0.66347,0.80564 -0.42651,0.31988 -1.00704,0.4739 -0.58054,0.16587 -1.25585,0.16587 -0.45021,0 -0.84119,-0.0711 -0.37912,-0.0711 -0.71085,-0.17771 -0.31989,-0.10663 -0.56869,-0.22511 -0.2488,-0.11847 -0.40282,-0.20141 z m 6.97826,1.2677 h 2.09704 v -5.40252 h -2.09704 v -1.445415 h 5.82904 v 1.445415 h -2.10888 v 5.40252 h 2.10888 v 1.44541 h -5.82904 z m 7.23891,-1.2677 h 1.30324 v 1.17292 q 0.0355,0.0118 0.0711,0.0237 0.27249,0.11848 0.59238,0.20141 0.33173,0.0711 0.69901,0.0711 0.66347,0 1.03074,-0.26065 0.36728,-0.27249 0.36728,-0.7227 0,-0.40282 -0.30804,-0.65162 -0.29619,-0.24881 -0.7464,-0.43837 -0.43836,-0.18956 -0.97151,-0.37912 -0.52129,-0.18956 -0.9715,-0.47391 -0.43837,-0.29619 -0.7464,-0.73455 -0.29619,-0.43836 -0.29619,-1.13737 0,-0.53315 0.2014,-0.97151 0.21326,-0.45021 0.58054,-0.770097 0.37912,-0.319886 0.90042,-0.497601 0.5213,-0.177714 1.16107,-0.177714 0.7227,0 1.42171,0.130324 0.69902,0.130324 1.11368,0.355429 v 2.405069 h -1.30324 v -1.31509 q -0.0355,0 -0.0711,-0.0118 -0.26065,-0.0711 -0.56869,-0.10663 -0.29619,-0.0474 -0.59238,-0.0474 -0.56869,0 -0.90042,0.2251 -0.31989,0.22511 -0.31989,0.60423 0,0.39097 0.29619,0.63977 0.30804,0.2488 0.7464,0.45021 0.45021,0.20141 0.97151,0.40282 0.53314,0.20141 0.97151,0.4976 0.45021,0.28435 0.7464,0.72271 0.30804,0.43836 0.30804,1.10183 0,0.63977 -0.23696,1.12553 -0.23695,0.4739 -0.66346,0.80564 -0.42652,0.31988 -1.00705,0.4739 -0.58054,0.16587 -1.25585,0.16587 -0.45021,0 -0.84119,-0.0711 -0.37912,-0.0711 -0.71085,-0.17771 -0.31989,-0.10663 -0.56869,-0.22511 -0.2488,-0.11847 -0.40282,-0.20141 z"
       id="path3"
       style="font-weight:bold;font-size:11.8476px;line-height:1;font-family:'PT Mono';-inkscape-font-specification:'PT Mono, Bold';fill:#ffffff;fill-opacity:1;stroke:#000000;stroke-width:0.396875;stroke-linejoin:round;stroke-miterlimit:10;stroke-dasharray:none;stroke-opacity:1"
       inkscape:label="Text-3" /><path
       d="m 169.46362,93.058604 h 1.30324 v 1.172916 q 0.0356,0.01185 0.0711,0.0237 0.2725,0.118476 0.59238,0.201409 0.33174,0.07109 0.69901,0.07109 0.66347,0 1.03075,-0.260648 0.36727,-0.272495 0.36727,-0.722706 0,-0.402819 -0.30804,-0.65162 -0.29619,-0.2488 -0.7464,-0.438362 -0.43836,-0.189563 -0.9715,-0.379125 -0.5213,-0.189562 -0.97151,-0.473905 -0.43836,-0.296191 -0.7464,-0.734554 -0.29619,-0.438363 -0.29619,-1.137373 0,-0.533144 0.20141,-0.971507 0.21326,-0.45021 0.58053,-0.770096 0.37913,-0.319886 0.90042,-0.497601 0.5213,-0.177714 1.16107,-0.177714 0.72271,0 1.42172,0.130324 0.69901,0.130324 1.11368,0.355429 v 2.40507 h -1.30324 v -1.315087 q -0.0356,0 -0.0711,-0.01185 -0.26065,-0.07109 -0.56869,-0.106629 -0.29619,-0.04739 -0.59238,-0.04739 -0.56868,0 -0.90042,0.225105 -0.31988,0.225105 -0.31988,0.604229 0,0.390972 0.29619,0.639773 0.30803,0.2488 0.7464,0.45021 0.45021,0.20141 0.9715,0.40282 0.53315,0.201409 0.97151,0.4976 0.45021,0.284344 0.7464,0.722706 0.30804,0.438363 0.30804,1.101831 0,0.639772 -0.23695,1.125525 -0.23696,0.473906 -0.66347,0.80564 -0.42652,0.319886 -1.00705,0.473905 -0.58053,0.165867 -1.25585,0.165867 -0.45021,0 -0.84118,-0.07109 -0.37913,-0.07108 -0.71086,-0.177714 -0.31989,-0.106629 -0.56869,-0.225105 -0.2488,-0.118477 -0.40282,-0.20141 z m 7.73652,1.409869 h 1.35063 v -5.686866 h -1.13738 v 1.433564 h -1.30324 v -2.736804 h 6.49251 v 2.736804 h -1.30324 v -1.433564 h -1.12553 v 5.686866 h 1.33879 v 1.30324 h -4.31254 z m 6.44512,-6.907173 q 0.27249,-0.04739 0.58053,-0.08293 0.31989,-0.04739 0.62792,-0.07109 0.31989,-0.0237 0.61608,-0.03554 0.29619,-0.01185 0.54499,-0.01185 0.58054,0 1.13738,0.118477 0.56868,0.106628 1.00705,0.379124 0.45021,0.272496 0.71085,0.734554 0.2725,0.462057 0.2725,1.14922 0,0.509449 -0.10663,0.888573 -0.0948,0.367277 -0.2725,0.65162 -0.17771,0.284344 -0.43836,0.497601 -0.2488,0.20141 -0.54499,0.367277 l 2.00225,3.625377 h -1.87192 l -1.67052,-3.246253 h -0.97151 v 3.246253 h -1.62312 z m 2.488,1.244002 q -0.2488,0 -0.4976,0.01185 -0.23695,0.01185 -0.36728,0.04739 v 2.405071 h 0.63977 q 0.67532,0 1.10183,-0.308039 0.42652,-0.308038 0.42652,-1.018897 0,-0.533143 -0.33173,-0.829334 -0.33174,-0.308039 -0.97151,-0.308039 z m 8.86204,-1.326935 h 1.54019 v 5.307741 q 0,0.80564 -0.21326,1.398022 -0.21325,0.580534 -0.60423,0.971506 -0.37912,0.379124 -0.91227,0.568687 -0.53314,0.189562 -1.17291,0.189562 -1.54019,0 -2.2866,-0.746401 -0.73455,-0.746401 -0.73455,-2.179966 v -5.509151 h 1.62313 v 5.189265 q 0,0.947811 0.34358,1.374326 0.34358,0.426515 1.07813,0.426515 0.71086,0 1.0189,-0.45021 0.31989,-0.462058 0.31989,-1.350631 z m 7.39293,5.509151 h 1.30324 v 2.369528 q -0.37913,0.272496 -0.97151,0.426515 -0.58053,0.154019 -1.19661,0.154019 -0.78194,0 -1.4928,-0.225105 -0.69901,-0.236953 -1.23216,-0.746401 -0.53314,-0.521296 -0.85303,-1.338783 -0.31988,-0.829335 -0.31988,-2.002251 0,-1.220307 0.35543,-2.037794 0.36727,-0.829335 0.93596,-1.326935 0.56869,-0.509449 1.2677,-0.722706 0.69901,-0.225105 1.37432,-0.225105 0.71086,0 1.19661,0.118476 0.49761,0.118476 0.81749,0.272496 v 2.464308 h -1.30324 v -1.35063 q -0.36728,-0.05924 -0.75825,-0.05924 -0.46206,0 -0.86488,0.177715 -0.39097,0.165867 -0.68716,0.521296 -0.29619,0.355429 -0.46206,0.900421 -0.16586,0.533143 -0.16586,1.267697 0,0.639772 0.15402,1.172916 0.15402,0.521296 0.45021,0.900421 0.29619,0.379124 0.7227,0.592381 0.42652,0.20141 0.97151,0.20141 0.39097,0 0.75825,-0.07109 z m 3.24626,1.480955 h 1.35063 v -5.686866 h -1.13738 v 1.433564 h -1.30324 v -2.736804 h 6.49251 v 2.736804 h -1.30324 v -1.433564 h -1.12553 v 5.686866 h 1.33879 v 1.30324 h -4.31254 z m 10.68657,-6.990106 h 1.54019 v 5.307741 q 0,0.80564 -0.21326,1.398022 -0.21325,0.580534 -0.60423,0.971506 -0.37912,0.379124 -0.91226,0.568687 -0.53315,0.189562 -1.17292,0.189562 -1.54019,0 -2.28659,-0.746401 -0.73456,-0.746401 -0.73456,-2.179966 v -5.509151 h 1.62313 v 5.189265 q 0,0.947811 0.34358,1.374326 0.34358,0.426515 1.07814,0.426515 0.71085,0 1.01889,-0.45021 0.31989,-0.462058 0.31989,-1.350631 z m 2.86713,0.08293 q 0.2725,-0.04739 0.58053,-0.08293 0.31989,-0.04739 0.62793,-0.07109 0.31989,-0.0237 0.61608,-0.03554 0.29619,-0.01185 0.54499,-0.01185 0.58053,0 1.13737,0.118477 0.56869,0.106628 1.00705,0.379124 0.45021,0.272496 0.71086,0.734554 0.27249,0.462057 0.27249,1.14922 0,0.509449 -0.10662,0.888573 -0.0948,0.367277 -0.2725,0.65162 -0.17772,0.284344 -0.43836,0.497601 -0.2488,0.20141 -0.54499,0.367277 l 2.00225,3.625377 h -1.87193 l -1.67052,-3.246253 h -0.9715 v 3.246253 h -1.62313 z m 2.488,1.244002 q -0.2488,0 -0.4976,0.01185 -0.23695,0.01185 -0.36727,0.04739 v 2.405071 h 0.63977 q 0.67531,0 1.10183,-0.308039 0.42651,-0.308038 0.42651,-1.018897 0,-0.533143 -0.33173,-0.829334 -0.33173,-0.308039 -0.97151,-0.308039 z m 8.62509,5.130027 h -2.47616 l -0.56868,1.836384 h -1.62313 l 2.67757,-8.293346 h 1.62312 l 2.66572,8.293346 h -1.70606 z m -2.09703,-1.30324 h 1.77714 l -0.84118,-2.772347 h -0.10663 z m 9.37149,-0.236953 h 1.4691 v 3.376577 h -5.44991 v -8.293346 h 1.62313 v 6.847934 h 2.35768 z m 14.0513,1.540193 h -2.47616 l -0.56868,1.836384 h -1.62313 l 2.67757,-8.293346 h 1.62312 l 2.66572,8.293346 h -1.70606 z m -2.09703,-1.30324 h 1.77714 l -0.84118,-2.772347 h -0.10663 z m 6.65838,-1.765298 h -0.0592 l 0.0711,0.983354 v 3.921568 h -1.5402 v -8.293346 h 1.42172 l 2.86713,5.070789 h 0.0592 l -0.10663,-0.995202 v -4.075587 h 1.54019 v 8.293346 h -1.42172 z m 5.50916,-3.388424 q 0.10662,-0.01185 0.36727,-0.03554 0.2725,-0.0237 0.60423,-0.03554 0.34358,-0.0237 0.69901,-0.03554 0.36728,-0.01185 0.65162,-0.01185 1.10183,0 1.82454,0.319886 0.7227,0.319887 1.13737,0.888573 0.42652,0.556839 0.59238,1.326936 0.16587,0.758249 0.16587,1.658669 0,0.817487 -0.16587,1.599431 -0.16586,0.781944 -0.60423,1.398022 -0.42651,0.604229 -1.19661,0.983353 -0.75825,0.367277 -1.95486,0.367277 -0.18956,0 -0.48575,-0.01185 -0.29619,-0.01185 -0.60423,-0.03554 -0.30804,-0.01185 -0.59238,-0.03554 -0.28435,-0.01185 -0.43836,-0.03554 z m 2.38137,1.326935 q -0.2251,0 -0.43836,0.0237 -0.21326,0.01185 -0.31989,0.0237 v 5.556542 q 0.0474,0.01185 0.14217,0.0237 0.0948,0 0.18957,0.01185 0.10662,0 0.20141,0.01185 0.0948,0 0.15401,0 0.68717,0 1.08999,-0.2488 0.41466,-0.260648 0.61607,-0.675315 0.20141,-0.414668 0.26065,-0.935964 0.0592,-0.521296 0.0592,-1.042592 0,-0.45021 -0.0592,-0.935963 -0.0474,-0.485753 -0.2488,-0.888573 -0.18956,-0.40282 -0.58053,-0.663468 -0.39097,-0.260648 -1.06629,-0.260648 z m 12.01351,4.253302 h 1.30324 v 1.172916 q 0.0355,0.01185 0.0711,0.0237 0.27249,0.118476 0.59238,0.201409 0.33173,0.07109 0.69901,0.07109 0.66347,0 1.03074,-0.260648 0.36728,-0.272495 0.36728,-0.722706 0,-0.402819 -0.30804,-0.65162 -0.29619,-0.2488 -0.7464,-0.438362 -0.43836,-0.189563 -0.97151,-0.379125 -0.52129,-0.189562 -0.9715,-0.473905 -0.43836,-0.296191 -0.7464,-0.734554 -0.29619,-0.438363 -0.29619,-1.137373 0,-0.533144 0.20141,-0.971507 0.21325,-0.45021 0.58053,-0.770096 0.37912,-0.319886 0.90042,-0.497601 0.5213,-0.177714 1.16107,-0.177714 0.72271,0 1.42172,0.130324 0.69901,0.130324 1.11367,0.355429 v 2.40507 h -1.30324 v -1.315087 q -0.0355,0 -0.0711,-0.01185 -0.26065,-0.07109 -0.56869,-0.106629 -0.29619,-0.04739 -0.59238,-0.04739 -0.56869,0 -0.90042,0.225105 -0.31989,0.225105 -0.31989,0.604229 0,0.390972 0.29619,0.639773 0.30804,0.2488 0.7464,0.45021 0.45021,0.20141 0.97151,0.40282 0.53314,0.201409 0.97151,0.4976 0.45021,0.284344 0.7464,0.722706 0.30804,0.438363 0.30804,1.101831 0,0.639772 -0.23696,1.125525 -0.23695,0.473906 -0.66346,0.80564 -0.42652,0.319886 -1.00705,0.473905 -0.58054,0.165867 -1.25585,0.165867 -0.45021,0 -0.84118,-0.07109 -0.37913,-0.07108 -0.71086,-0.177714 -0.31989,-0.106629 -0.56869,-0.225105 -0.2488,-0.118477 -0.40282,-0.20141 z m 9.08715,-0.343581 -2.67757,-5.236656 h 1.93116 l 1.59944,3.423967 h 0.0592 l 1.63498,-3.423967 h 1.7416 l -2.66572,5.224808 v 3.068538 h -1.62312 z m 5.13003,0.343581 h 1.30324 v 1.172916 q 0.0355,0.01185 0.0711,0.0237 0.27249,0.118476 0.59238,0.201409 0.33173,0.07109 0.69901,0.07109 0.66347,0 1.03074,-0.260648 0.36728,-0.272495 0.36728,-0.722706 0,-0.402819 -0.30804,-0.65162 -0.29619,-0.2488 -0.7464,-0.438362 -0.43836,-0.189563 -0.97151,-0.379125 -0.52129,-0.189562 -0.9715,-0.473905 -0.43837,-0.296191 -0.7464,-0.734554 -0.2962,-0.438363 -0.2962,-1.137373 0,-0.533144 0.20141,-0.971507 0.21326,-0.45021 0.58054,-0.770096 0.37912,-0.319886 0.90042,-0.497601 0.5213,-0.177714 1.16107,-0.177714 0.7227,0 1.42171,0.130324 0.69901,0.130324 1.11368,0.355429 v 2.40507 h -1.30324 v -1.315087 q -0.0355,0 -0.0711,-0.01185 -0.26065,-0.07109 -0.56869,-0.106629 -0.29619,-0.04739 -0.59238,-0.04739 -0.56869,0 -0.90042,0.225105 -0.31989,0.225105 -0.31989,0.604229 0,0.390972 0.29619,0.639773 0.30804,0.2488 0.7464,0.45021 0.45021,0.20141 0.97151,0.40282 0.53314,0.201409 0.97151,0.4976 0.45021,0.284344 0.7464,0.722706 0.30804,0.438363 0.30804,1.101831 0,0.639772 -0.23696,1.125525 -0.23695,0.473906 -0.66347,0.80564 -0.42651,0.319886 -1.00704,0.473905 -0.58054,0.165867 -1.25585,0.165867 -0.45021,0 -0.84119,-0.07109 -0.37912,-0.07108 -0.71085,-0.177714 -0.31989,-0.106629 -0.56869,-0.225105 -0.2488,-0.118477 -0.40282,-0.20141 z m 7.73651,1.409869 h 1.35063 v -5.686866 h -1.13737 v 1.433564 h -1.30324 v -2.736804 h 6.49251 v 2.736804 h -1.30324 v -1.433564 h -1.12553 v 5.686866 h 1.33878 v 1.30324 h -4.31254 z m 6.5399,-6.990106 h 5.43806 v 1.445411 h -3.81494 v 1.931165 h 3.51875 v 1.445412 h -3.51875 v 2.025946 h 3.87418 v 1.445412 h -5.4973 z m 11.29081,3.874177 0.0592,-1.291392 h -0.0711 l -1.32693,2.168117 h -0.28435 l -1.38617,-2.168117 h -0.0592 l 0.0711,1.161068 v 4.549493 h -1.54019 v -8.293346 h 1.64682 l 1.42171,2.298441 h 0.0474 l 1.40987,-2.298441 h 1.63498 v 8.293346 h -1.62313 z"
       id="path1"
       style="font-weight:bold;font-size:11.8476px;line-height:1;font-family:'PT Mono';-inkscape-font-specification:'PT Mono, Bold';fill:#ffffff;fill-opacity:1;stroke:#000000;stroke-width:0.396875;stroke-linejoin:round;stroke-miterlimit:10;stroke-dasharray:none;stroke-opacity:1"
       inkscape:label="Text-2" /><path
       d="m 169.33333,66.595114 h 11.23777 v 3.087857 h -7.77026 v 4.378682 h 7.21343 v 3.087856 h -7.21343 v 7.162816 h -3.46751 z m 13.97129,8.858605 q 0,-2.151375 0.40497,-3.872476 0.40496,-1.7211 1.2402,-2.885374 0.83524,-1.189584 2.07545,-1.822342 1.26551,-0.632757 2.9613,-0.632757 1.82234,0 3.08786,0.683378 1.26551,0.683378 2.05013,1.898272 0.80993,1.214895 1.16428,2.910685 0.37965,1.69579 0.37965,3.720614 0,4.328062 -1.67048,6.783161 -1.64517,2.429789 -5.01144,2.429789 -1.82234,0 -3.11317,-0.683378 -1.26551,-0.683379 -2.07544,-1.898273 -0.78462,-1.214894 -1.13896,-2.910685 -0.35435,-1.69579 -0.35435,-3.720614 z m 3.64468,0 q 0,1.290826 0.10125,2.404479 0.12655,1.113653 0.43027,1.948893 0.32904,0.80993 0.91117,1.290825 0.60745,0.480896 1.59455,0.480896 0.88586,0 1.468,-0.354344 0.58214,-0.379655 0.93648,-1.138964 0.35434,-0.759309 0.4809,-1.898272 0.15186,-1.164274 0.15186,-2.733513 0,-1.240205 -0.10124,-2.353858 -0.0759,-1.113653 -0.40497,-1.948893 -0.30372,-0.83524 -0.91117,-1.316136 -0.60745,-0.506206 -1.61986,-0.506206 -1.77172,0 -2.40448,1.543929 -0.63276,1.543928 -0.63276,4.581164 z m 12.19958,-8.681433 q 0.58214,-0.101241 1.2402,-0.177172 0.68338,-0.101241 1.34145,-0.151862 0.68338,-0.05062 1.31614,-0.07593 0.63275,-0.02531 1.16427,-0.02531 1.2402,0 2.42979,0.253103 1.21489,0.227793 2.15137,0.80993 0.9618,0.582136 1.51862,1.569238 0.58214,0.987102 0.58214,2.455099 0,1.088343 -0.22779,1.898273 -0.20249,0.784619 -0.58214,1.392067 -0.37965,0.607447 -0.93648,1.063032 -0.53152,0.430275 -1.16428,0.784619 l 4.27745,7.744953 h -3.99903 l -3.56875,-6.935023 h -2.07545 v 6.935023 h -3.46751 z m 5.31516,2.657582 q -0.53151,0 -1.06303,0.02531 -0.50621,0.02531 -0.78462,0.101241 v 5.137991 h 1.36676 q 1.44268,0 2.35386,-0.658068 0.91117,-0.658067 0.91117,-2.176685 0,-1.138964 -0.70869,-1.771722 -0.70869,-0.658067 -2.07545,-0.658067 z m 11.28841,12.098323 h 2.88537 V 69.379247 h -2.42979 v 3.062546 h -2.78413 v -5.846679 h 13.87004 v 5.846679 h -2.78413 v -3.062546 h -2.40448 v 12.148944 h 2.86007 v 2.784134 h -9.21295 z m 22.8299,-14.933077 h 3.29034 v 11.339015 q 0,1.7211 -0.45559,2.986615 -0.45558,1.240205 -1.29082,2.075445 -0.80993,0.80993 -1.9489,1.214894 -1.13896,0.404965 -2.50572,0.404965 -3.29033,0 -4.88488,-1.594549 -1.56924,-1.594549 -1.56924,-4.657095 v -11.76929 h 3.46751 v 11.085912 q 0,2.024824 0.734,2.935995 0.734,0.91117 2.30323,0.91117 1.51862,0 2.17669,-0.961791 0.68338,-0.987102 0.68338,-2.885374 z m 9.23827,7.238746 h -0.12655 l 0.15186,2.100755 v 8.37771 h -3.29034 V 66.595114 h 3.03724 l 6.12509,10.832809 h 0.12655 l -0.22779,-2.126066 v -8.706743 h 3.29034 v 17.717211 h -3.03724 z m 20.6279,6.555368 h -5.28985 l -1.2149,3.923097 h -3.46751 l 5.72013,-17.717211 h 3.46751 l 5.69482,17.717211 h -3.64468 z m -4.47992,-2.784133 h 3.79654 l -1.79703,-5.922611 h -0.22779 z m 15.08495,5.03675 q 0,-0.885861 0.55683,-1.392067 0.55683,-0.531516 1.468,-0.531516 0.96179,0 1.51862,0.531516 0.55682,0.506206 0.55682,1.392067 0,0.88586 -0.55682,1.417377 -0.55683,0.531516 -1.51862,0.531516 -0.91117,0 -1.468,-0.531516 -0.55683,-0.531517 -0.55683,-1.417377 z m 11.97178,-16.046731 h 10.57971 v 11.288394 q 0,1.442687 -0.37966,2.708202 -0.35434,1.265515 -1.31613,2.252617 -0.60745,0.607447 -1.31614,0.961792 -0.68338,0.354344 -1.34144,0.531516 -0.65807,0.177172 -1.24021,0.227793 -0.58214,0.05062 -0.96179,0.05062 -1.21489,0 -2.35386,-0.278413 -1.13896,-0.253103 -2.27792,-0.936481 l 1.2402,-2.784133 q 0.96179,0.556826 1.64517,0.733998 0.70869,0.177172 1.61986,0.177172 0.55683,0 1.18958,-0.202482 0.65807,-0.227793 1.13897,-0.733999 0.88586,-0.961791 0.88586,-2.682892 v -8.225847 h -7.1122 z m 23.33611,10.503775 h 3.13848 v 7.213436 H 305.85718 V 66.595114 h 3.46752 v 14.629354 h 5.03674 z"
       id="text7"
       style="font-weight:bold;font-size:25.3103px;line-height:1;font-family:'PT Mono';-inkscape-font-specification:'PT Mono, Bold';fill:#ffffff;fill-opacity:1;stroke:#000000;stroke-width:0.396875;stroke-linejoin:round;stroke-miterlimit:10;stroke-dasharray:none;stroke-opacity:1"
       aria-label="FORTUNA.JL"
       inkscape:label="Text-1" /></g></svg>
