<?xml version="1.0" encoding="UTF-8" standalone="no"?>
<!-- Created with Inkscape (http://www.inkscape.org/) -->

<svg
   width="640"
   height="640"
   viewBox="0 0 640 640"
   version="1.1"
   id="svg1"
   inkscape:version="1.3.2 (091e20e, 2023-11-25)"
   sodipodi:docname="Fortuna-Logo.svg"
   xmlns:inkscape="http://www.inkscape.org/namespaces/inkscape"
   xmlns:sodipodi="http://sodipodi.sourceforge.net/DTD/sodipodi-0.dtd"
   xmlns="http://www.w3.org/2000/svg"
   xmlns:svg="http://www.w3.org/2000/svg">
  <sodipodi:namedview
     id="namedview1"
     pagecolor="#ffffff"
     bordercolor="#000000"
     borderopacity="0.25"
     inkscape:showpageshadow="2"
     inkscape:pageopacity="0.0"
     inkscape:pagecheckerboard="0"
     inkscape:deskcolor="#d1d1d1"
     inkscape:document-units="px"
     showguides="true"
     inkscape:zoom="0.71891929"
     inkscape:cx="237.85702"
     inkscape:cy="244.11642"
     inkscape:window-width="1512"
     inkscape:window-height="856"
     inkscape:window-x="0"
     inkscape:window-y="38"
     inkscape:window-maximized="1"
     inkscape:current-layer="svg1">
    <sodipodi:guide
       position="0,560"
       orientation="0,1"
       id="guide1"
       inkscape:locked="false"
       inkscape:label=""
       inkscape:color="rgb(0,134,229)" />
  </sodipodi:namedview>
  <defs
     id="defs1" />
  <rect
     style="fill:#008080;fill-opacity:1;stroke:none;stroke-width:0;stroke-linecap:round;stroke-linejoin:round;stroke-dasharray:none"
     id="rect1"
     width="640"
     height="640"
     x="0"
     y="0"
     inkscape:label="Background"
     ry="80" />
  <path
     fill="#000000"
     d="m 315.86884,153.80039 c -11.2224,0.3481 -26.06725,8.45942 -36.01111,13.14724 10.79622,1.58392 23.79432,4.73756 32.10459,9.87288 9.02053,-5.58278 13.35323,-12.01081 14.98689,-19.18462 -2.77009,-2.91216 -6.67661,-3.97047 -11.08037,-3.8355 z m -56.32509,24.41227 c -11.43553,1.17907 -28.90836,8.1114 -35.79806,27.13267 21.37939,-3.7787 46.09709,-10.49084 61.86528,4.49605 11.5065,-4.01307 14.70277,-14.66725 17.89901,-23.04855 -14.06351,-6.86127 -29.54756,-8.04034 -43.96623,-8.58017 z m 189.71551,8.99925 c -11.7196,12.80632 -13.21122,18.48854 -15.62615,29.23506 l 8.31023,12.00374 13.06912,-12.07476 c 1.06541,-10.74652 0.85236,-12.94839 -5.7532,-29.16404 z m -33.38313,24.61825 c -1.06541,11.43549 -0.71029,21.87659 0.85232,30.75508 l 14.84485,14.56071 3.48038,-20.02984 -7.7421,-16.26538 c -3.48034,-2.98319 -7.31584,-6.03738 -11.43545,-9.02057 z m -162.15667,1.20749 c -18.53832,0.071 -39.56254,8.73641 -51.77934,14.13452 -28.98648,17.61495 -38.52552,41.90646 -40.79841,69.1812 24.37674,-40.05975 72.33479,-58.66904 113.45994,-59.45035 4.8299,-4.97197 5.04299,-10.08597 4.47474,-15.27099 -6.67661,-6.32149 -15.69714,-8.6654 -25.35693,-8.59438 z m 218.83692,8.73641 c -4.26172,0.9944 -8.1682,2.20188 -11.93272,3.48038 l -15.12888,13.7794 -3.55144,20.10089 18.75134,-8.02613 c 4.68786,-7.81307 8.80747,-17.82803 11.8617,-29.33454 z m -197.88371,27.91397 c -54.97557,1.13647 -99.44614,33.66724 -114.43302,79.9064 -1.0441,19.3906 0.53979,36.86347 20.91061,49.2223 -1.92487,-58.95315 47.99354,-100.5755 97.35791,-116.1306 2.2729,-4.97193 -0.42614,-9.37569 -3.8355,-12.9981 z m 130.97542,1.49159 c -0.28423,32.81488 9.65983,34.09338 19.88783,39.98869 l 3.76449,-21.23732 -14.20558,-13.77944 c -2.98319,-1.63362 -6.1084,-3.3383 -9.44674,-4.97193 z m 62.43348,10.93829 c -2.62801,0.28422 -5.32709,0.4972 -7.88409,0.78131 l -20.45594,8.9495 -3.83558,21.59248 c 15.05794,-1.06541 22.4448,-3.0542 32.17561,-31.32329 z m -182.68369,11.86167 c -58.45596,18.04109 -105.49063,72.51946 -86.57587,125.71938 8.06166,23.01305 24.92368,25.78314 39.62646,28.12702 -16.40746,-55.54379 16.8336,-117.97732 62.2204,-140.3511 -2.62802,-6.81868 -9.80183,-11.79065 -15.27099,-13.4953 z m 30.11584,21.23732 c -43.75317,18.75137 -78.1307,73.94004 -67.97371,118.47451 10.22804,-12.00366 25.99623,-18.39621 41.69337,-15.83917 1.06545,-1.98882 2.41497,-3.76448 3.97757,-5.39818 -0.85232,-21.37935 6.6056,-44.17932 10.51215,-63.07276 5.46913,0.85236 10.9383,1.63366 16.40743,2.41497 9.30463,-7.3869 20.52706,-13.06912 32.95695,-16.26539 -1.98879,-5.89531 -4.40376,-9.37569 -7.59999,-14.48969 -8.09718,-5.54018 -17.04669,-9.4467 -29.97377,-5.82429 z m 72.23535,4.97197 c -0.49719,4.61681 -0.63927,8.80743 -0.49719,12.78501 11.57756,1.13646 22.4448,4.3327 32.10459,9.16259 l -6.53454,20.24293 10.4411,2.55704 5.114,-17.61491 c 20.45601,13.42424 33.52517,34.6616 33.52517,58.31388 0,3.19627 -0.21317,6.32149 -0.71033,9.37565 4.3327,0.71032 9.02056,2.69911 12.14578,4.90099 0.85236,-4.68786 1.34956,-9.44674 1.34956,-14.27664 0,-29.83174 -17.11775,-55.82793 -42.8298,-71.16994 0.4972,-3.48038 0.99439,-7.24486 1.56261,-11.43549 l -10.51215,-1.63363 c -0.35528,2.77006 -0.71025,5.32706 -1.06542,7.81304 -10.44109,-4.75884 -21.9476,-7.88409 -34.09338,-9.02052 z m -13.14017,4.26168 -11.36443,2.20184 c 4.26168,10.4411 4.3327,20.66914 3.69343,30.82609 3.62245,0.42618 7.31588,0.78135 10.93833,1.06545 -2.20188,-10.93833 -3.97758,-21.30837 -3.26733,-34.09338 z m -60.79986,39.34942 -2.05981,9.87288 103.91381,8.38129 1.13643,-7.671 c -36.2242,-2.2729 -70.3886,-5.89531 -102.99043,-10.58317 z m 10.4411,24.29155 c -6.53454,0 -11.29342,4.75888 -11.29342,10.29907 0,5.54014 4.75888,10.29902 11.29342,10.29902 6.53457,0 11.29345,-4.75888 11.29345,-10.29902 0,-5.54019 -4.75888,-10.29907 -11.29345,-10.29907 z m 36.43733,3.48038 c -6.96072,0 -12.28785,5.25608 -12.28785,11.79065 0,6.53454 5.32713,11.79058 12.28785,11.79058 6.96071,0 12.28781,-5.25604 12.28781,-11.79058 0,-6.53457 -5.3271,-11.79065 -12.28781,-11.79065 z m 36.15318,2.41497 c -6.53454,0 -11.29342,4.75884 -11.29342,10.29902 0,5.54019 4.75888,10.29903 11.29342,10.29903 5.96636,-0.0711 11.15138,-5.04299 11.29342,-10.29903 0,-5.54018 -4.75884,-10.29902 -11.29342,-10.29902 z m 31.25227,0 c 2.41493,11.71956 2.69908,21.73451 2.41493,32.24667 4.3327,3.97753 6.81869,2.27289 10.51215,-0.71029 -2.62801,-10.22805 -3.97757,-21.73455 -1.84671,-30.75508 z M 309.8315,398.34944 c -5.96636,0 -10.58317,4.61681 -10.58317,10.29906 0,5.68226 4.61681,10.29903 10.58317,10.29903 5.96633,0 10.58313,-4.61677 10.58313,-10.29903 0,-5.68225 -4.6168,-10.29906 -10.58313,-10.29906 z m 32.67281,5.68222 c -5.39811,0 -9.58878,4.11961 -9.58878,9.30467 0,5.18502 4.19067,9.30466 9.58878,9.30466 5.39811,0 9.58877,-4.11964 9.58877,-9.30466 0,-5.18506 -4.19066,-9.30467 -9.58877,-9.30467 z m 64.77744,0.92337 c -4.26168,-0.14211 -7.74206,4.26165 -11.7196,11.15139 -3.3383,5.96636 -5.39811,13.49533 -5.68222,19.60365 -0.71028,16.62059 8.52333,37.5738 22.1607,45.31582 8.09718,1.63363 15.91022,-3.12522 23.58126,-2.98314 6.46353,-1.13647 18.39617,8.23922 23.43916,5.39811 h 0.0711 c 7.24486,-3.97758 13.1402,-11.86167 16.76262,-21.37939 3.62245,-9.44678 4.90091,-20.31402 3.62245,-29.26349 -0.78134,-5.18509 -3.26733,-11.29345 -6.88974,-16.05233 -3.62245,-4.75884 -8.09719,-8.02613 -12.50094,-8.94951 -9.58874,3.90652 -16.76255,13.85046 -25.28591,13.85046 -10.58313,1.84672 -19.81678,-16.26542 -27.5588,-16.69157 z m -32.1046,1.63363 c -6.03737,0 -10.29906,4.26164 -10.29906,9.09162 0,4.82985 4.26169,9.0915 10.29906,9.0915 1.27851,0 2.48595,-0.21317 3.5514,-0.56818 1.13643,-4.54583 2.84111,-9.16259 5.18502,-13.42431 -1.7757,-2.48595 -4.90091,-4.19063 -8.73642,-4.19063 z m -93.25961,3.48038 c -13.92148,0.14173 -26.91958,9.51772 -31.60744,24.43359 -5.68222,18.32519 3.8355,37.07656 20.88219,42.40365 14.34766,4.40372 29.61865,-1.91777 37.57376,-14.84481 -6.60559,-4.11965 -11.08032,-11.22244 -11.08032,-19.39064 0,-4.61681 1.42053,-8.87849 3.8355,-12.50087 -8.23926,-3.12525 -14.2766,-10.72524 -14.98689,-19.81682 -1.56261,-0.21316 -3.0542,-0.28422 -4.6168,-0.28422 z m 39.84665,22.30276 c -6.53458,0 -11.29346,4.75888 -11.29346,10.29903 0,5.54022 4.75888,10.2991 11.29346,10.2991 6.53454,0 11.29342,-4.75888 11.29342,-10.2991 0,-5.54015 -4.75888,-10.29903 -11.29342,-10.29903 z m 37.64478,4.33267 c -7.52898,0 -12.78505,5.114 -12.78505,10.79625 0,5.68226 5.25607,10.79622 12.78505,10.79622 7.52893,0 12.785,-5.11396 12.785,-10.79622 0,-5.68225 -5.25607,-10.79625 -12.785,-10.79625 z m 21.4504,23.65236 c -3.8355,5.39807 -10.08597,9.30463 -17.11771,10.37004 7.74203,0.92337 14.7738,1.06541 21.94761,0.49719 -1.91773,-3.40932 -3.5514,-7.10279 -4.8299,-10.86723 z m -47.80176,5.25603 c -6.53458,0 -11.29342,4.75888 -11.29342,10.29907 0,5.54014 4.75884,10.29902 11.29342,10.29902 6.53457,0 11.29341,-4.75888 11.29341,-10.29902 0,-5.54019 -4.75884,-10.29907 -11.29341,-10.29907 z"
     id="path1"
     style="fill:#deb82d;fill-opacity:1;stroke-width:0.413412"
     inkscape:label="Cornucopia" />
</svg>
